<svg width="1466" height="769" viewBox="0 0 1466 769" fill="none" xmlns="http://www.w3.org/2000/svg">
<g clip-path="url(#clip0)">
<path opacity="0.15" d="M337.565 441.46C337.565 441.46 204.635 421.18 222.685 319.82C240.735 218.46 292.515 229.72 294.765 153.14C297.015 76.5597 387.115 49.5297 436.675 92.3197C486.235 135.11 447.935 175.66 483.975 292.79C537.775 467.65 337.565 441.46 337.565 441.46Z" fill="#D2CAFC"/>
<path opacity="0.4" d="M1517 650H-16V660H1517V650Z" fill="#D2CAFC"/>
<path opacity="0.4" d="M1517 660H-16V878H1517V660Z" fill="url(#paint0_linear)"/>
<path fill-rule="evenodd" clip-rule="evenodd" d="M298.907 302.1H300.896C312.939 302.1 322.773 311.823 322.773 323.977V345.301C322.773 356.571 314.265 365.742 303.326 366.957V367.067H273.936C269.296 362.537 273.826 333.479 277.361 320.662C278.798 310.165 287.858 302.1 298.907 302.1Z" fill="#1F0744"/>
<path fill-rule="evenodd" clip-rule="evenodd" d="M317.248 336.683C320.563 336.683 323.215 334.031 323.215 330.716C323.215 327.401 320.563 324.75 317.248 324.75C315.812 324.75 314.486 325.302 313.492 326.076C304.763 320.662 295.04 319.446 292.499 310.828C295.813 305.856 299.791 300 312.387 300C320.784 300 327.634 305.524 333.048 316.684V317.568C334.043 318.452 335.037 319.446 336.032 320.441C336.032 349.057 352.937 337.235 351.169 367.62H319.79C316.254 364.084 315.702 349.499 316.917 336.572C317.138 336.683 317.248 336.683 317.248 336.683Z" fill="#1F0744"/>
<path d="M308.871 366.37C319.538 365.867 327.542 351.822 326.749 334.998C325.956 318.175 316.666 304.944 305.999 305.447C295.332 305.95 287.327 319.996 288.12 336.819C288.913 353.642 298.204 366.873 308.871 366.37Z" fill="#C08356"/>
<path d="M320.12 302.099C320.01 301.989 317.137 300.774 317.027 300.774C307.967 299.448 309.182 301.216 300.564 302.652C299.901 302.762 294.929 303.646 294.045 303.978C294.266 302.762 277.361 318.12 286.09 317.789C286.532 317.789 286.863 317.678 287.305 317.678C287.305 317.789 287.195 317.899 287.195 317.899C285.206 323.313 285.758 335.357 285.758 335.357C285.758 335.357 289.294 329.832 293.492 329.611C298.244 329.39 304.431 335.025 309.845 334.804C315.148 334.583 320.894 332.484 324.43 332.815C327.523 333.036 329.733 333.478 331.169 335.467C332.385 337.235 333.379 340.218 333.379 340.218C333.379 340.218 337.357 333.699 335.81 325.192C335.589 323.755 336.031 324.529 336.252 320.22C334.595 311.27 321.336 301.989 320.12 302.099Z" fill="#1F0744"/>
<path d="M300.454 357.233C300.454 357.233 301.117 362.868 299.018 363.973C296.918 365.077 280.013 367.398 280.013 367.398L272.058 373.475L290.4 392.368C290.4 392.368 316.144 390.159 317.138 390.38C318.132 390.49 335.59 388.391 335.59 388.391L334.374 368.834C334.374 368.834 327.303 368.724 322.883 365.961C320.011 364.194 319.348 360.658 319.237 359.663V357.012L300.454 357.233Z" fill="#C08356"/>
<path d="M281.118 367.178C281.118 367.178 282.444 387.176 295.482 386.955C308.52 386.734 308.52 386.734 308.52 386.734L309.183 386.624C309.183 386.624 309.183 386.624 322.11 385.629C335.037 384.635 334.485 368.282 334.485 368.282L344.097 370.271C344.097 370.271 338.683 412.147 341.666 414.909C344.65 417.671 340.341 449.713 342.882 454.133C345.423 458.663 339.346 466.95 339.236 465.955C339.236 464.961 292.167 472.695 292.167 472.695L268.633 467.723L266.975 465.845C266.975 463.966 267.528 462.088 268.633 460.541C270.511 457.779 273.715 451.26 276.146 437.338C279.903 416.124 264.766 371.045 264.766 371.045C264.766 371.045 279.903 366.515 281.118 367.178Z" fill="white"/>
<path d="M326.64 441.094L305.537 442.089C304.432 442.089 303.437 441.315 303.437 440.211L301.449 397.451C301.449 396.346 302.222 395.352 303.327 395.352L324.431 394.357C325.535 394.357 326.53 395.131 326.53 396.236L328.519 438.995C328.629 440.1 327.745 440.984 326.64 441.094Z" fill="#D2CAFC"/>
<path d="M266.423 372.482C261.451 369.609 237.364 433.472 240.237 449.603C242.999 465.845 249.739 468.055 256.81 465.624C263.882 463.193 300.343 444.3 307.083 441.317C312.497 438.886 319.016 434.687 322.773 432.146C324.761 430.82 325.977 428.5 325.866 426.069C325.756 422.533 325.645 416.567 325.314 415.02C324.319 410.6 302.884 421.097 302.884 421.097C302.884 421.097 303.216 417.34 300.454 417.561C295.924 417.782 296.255 432.919 296.255 432.919L266.313 436.787C266.313 436.787 270.29 422.975 274.378 412.589C278.466 402.203 271.395 375.354 266.423 372.482Z" fill="#C08356"/>
<path d="M344.097 370.492C344.097 370.492 347.964 370.603 350.947 375.796C354.041 380.989 369.62 419.108 369.62 419.108C369.62 419.108 379.233 444.41 379.122 448.277C379.012 452.144 374.702 458.221 370.946 458.11C367.079 458 361.112 454.906 360.007 453.47C358.903 452.033 341.114 432.256 341.114 431.482C341.114 430.709 331.612 435.791 327.744 434.908C323.877 434.024 320.452 430.93 320.452 430.93L320.563 416.124C320.563 416.124 323.767 412.92 327.082 413.473C330.396 414.025 347.412 421.649 347.412 421.649C347.412 421.649 349.732 423.085 353.931 425.405C358.129 427.726 342.66 419.55 341.666 414.246C340.672 408.943 343.213 371.266 343.213 371.266L344.097 370.492Z" fill="#C08356"/>
<path d="M318.795 603.072L316.806 652.903L332.716 651.909L339.788 604.398L318.795 603.072Z" fill="#C08356"/>
<path d="M389.398 539.652L425.638 573.904L435.362 561.198L404.093 524.736L389.398 539.652Z" fill="#C08356"/>
<path fill-rule="evenodd" clip-rule="evenodd" d="M426.027 583.202L411 564.197L464.146 553.148" fill="#1F0744"/>
<path d="M317.69 615.777L338.904 617.324C338.904 617.324 350.948 526.17 354.373 522.193C357.798 518.215 361.444 514.238 361.444 514.238L368.847 507.719L344.208 488.162L324.983 511.807C322.994 514.238 321.889 517.221 321.778 520.315L317.69 615.777Z" fill="#14B0BC"/>
<path d="M267.749 466.397C267.749 466.397 241.011 502.637 266.755 523.078C280.898 534.237 293.383 532.138 307.415 530.149C313.271 529.265 320.674 525.177 325.204 520.095L343.877 498.77L402.326 553.02C402.326 553.02 416.248 540.535 417.021 539.651C417.794 538.878 361.887 467.06 361.887 467.06C361.887 467.06 354.594 453.58 340.231 457.557C330.176 460.32 301.67 470.153 294.377 472.363C293.273 472.695 292.168 472.695 291.063 472.363L287.859 471.479L267.749 466.397Z" fill="#14B0BC"/>
<path fill-rule="evenodd" clip-rule="evenodd" d="M315.038 657.212L313.491 636.33L356.914 654.119" fill="#1F0744"/>
<path opacity="0.3" d="M346.859 494.683C346.859 494.683 335.7 509.267 325.645 518.769C315.812 528.05 304.873 531.034 294.487 529.708" stroke="#1F0744" stroke-width="2" stroke-miterlimit="10" stroke-linecap="round"/>
<path opacity="0.3" d="M346.859 500.539L386.304 536.89C386.304 536.89 399.01 549.707 408.623 542.525" stroke="#1F0744" stroke-width="2" stroke-miterlimit="10" stroke-linecap="round"/>
<g opacity="0.3">
<path opacity="0.3" d="M324.099 547.054C330.508 548.601 337.137 548.933 343.656 548.27C344.098 548.27 345.092 547.938 345.203 547.386C345.313 546.833 344.429 546.833 344.098 546.833C337.91 547.496 331.723 547.054 325.757 545.618C325.204 545.508 324.32 545.728 323.878 546.17C323.436 546.612 323.547 546.944 324.099 547.054Z" fill="#1F0744"/>
</g>
<g opacity="0.3">
<path opacity="0.3" d="M263.661 475.348C270.401 474.906 277.03 474.022 283.66 472.806C283.991 472.696 285.206 472.475 285.206 472.143C285.317 471.701 284.323 471.922 284.102 471.922C277.693 473.138 271.285 474.022 264.766 474.464C264.324 474.464 263.219 474.685 262.998 475.127C262.667 475.458 263.219 475.348 263.661 475.348Z" fill="#1F0744"/>
</g>
<g opacity="0.3">
<path opacity="0.3" d="M291.283 472.917C282.775 474.684 274.488 477.336 266.533 480.651C266.201 480.761 265.539 481.203 265.76 481.645C266.091 482.087 267.196 481.756 267.527 481.645C275.262 478.441 283.327 475.9 291.614 474.132C291.946 474.021 292.94 473.69 292.829 473.138C292.608 472.696 291.614 472.917 291.283 472.917Z" fill="#1F0744"/>
</g>
<g opacity="0.3">
<path opacity="0.3" d="M362.328 471.148C359.897 474.463 355.919 475.899 352.273 477.336C351.831 477.446 351.168 477.999 351.61 478.551C352.052 478.993 352.936 478.882 353.378 478.661C357.577 477.004 361.996 475.126 364.869 471.369C365.311 470.817 364.538 470.485 364.096 470.485C363.433 470.375 362.77 470.706 362.328 471.148Z" fill="#1F0744"/>
</g>
<path d="M276.477 429.715C280.455 431.041 284.543 431.814 288.631 432.035C289.294 432.035 290.288 431.814 290.73 431.151C291.172 430.488 290.288 430.378 289.846 430.378C286.09 430.157 282.444 429.494 278.908 428.278C278.245 428.057 277.251 428.278 276.698 428.61C276.477 428.831 275.704 429.383 276.477 429.715Z" fill="#F2EAFC"/>
<path d="M274.268 463.746C284.543 463.746 294.819 464.409 305.094 465.624C305.868 465.735 306.862 465.403 307.194 464.63C307.525 463.857 306.973 463.415 306.199 463.304C295.703 462.089 285.096 461.426 274.599 461.426C272.832 461.426 272.169 463.746 274.268 463.746Z" fill="#F2EAFC"/>
<path d="M331.612 453.028C328.518 454.465 325.424 455.569 322.11 456.343C321.778 456.453 320.563 456.785 320.673 457.337C320.784 457.89 322.11 457.558 322.441 457.558C326.308 456.674 329.954 455.348 333.49 453.581C333.822 453.36 334.485 452.807 333.822 452.586C333.159 452.365 332.275 452.697 331.612 453.028Z" fill="#F2EAFC"/>
<path d="M264.766 371.266C261.12 370.493 247.419 406.402 247.419 406.402L274.047 417.23L277.914 408.943L278.135 381.321C278.135 381.321 268.522 372.04 264.766 371.266Z" fill="white"/>
<path d="M350.063 371.044C355.035 373.143 366.195 406.18 366.195 406.18L340.892 417.008L337.025 408.721L336.252 371.265C336.142 371.265 344.981 368.945 350.063 371.044Z" fill="white"/>
<g opacity="0.5">
<path opacity="0.15" fill-rule="evenodd" clip-rule="evenodd" d="M267 525V649.028H391V525H267Z" fill="#6950F6"/>
<path opacity="0.15" fill-rule="evenodd" clip-rule="evenodd" d="M267 525V649.028H391C391.004 632.742 387.799 616.614 381.569 601.567C375.339 586.519 366.206 572.846 354.691 561.329C343.176 549.811 329.505 540.675 314.459 534.442C299.413 528.208 283.286 525 267 525V525Z" fill="#411BB5"/>
<path opacity="0.15" fill-rule="evenodd" clip-rule="evenodd" d="M267 574.947V649.027H341.052C341.055 639.3 339.143 629.668 335.423 620.68C331.703 611.692 326.249 603.526 319.372 596.646C312.496 589.767 304.331 584.31 295.345 580.587C286.359 576.864 276.727 574.947 267 574.947V574.947Z" fill="#1F0744"/>
</g>
<path fill-rule="evenodd" clip-rule="evenodd" d="M448.26 120.38C441.332 120.379 434.513 122.1 428.416 125.389C422.319 128.678 417.134 133.43 413.33 139.22C409.313 136.951 404.772 135.774 400.159 135.808C395.545 135.841 391.022 137.083 387.038 139.411C383.055 141.738 379.751 145.068 377.456 149.071C375.161 153.073 373.956 157.607 373.96 162.22H490.08C490.083 156.726 489.003 151.286 486.902 146.21C484.802 141.134 481.722 136.521 477.838 132.636C473.955 128.75 469.344 125.668 464.268 123.565C459.193 121.462 453.754 120.38 448.26 120.38V120.38Z" fill="#D2CAFC" fill-opacity="0.5"/>
<path fill-rule="evenodd" clip-rule="evenodd" d="M1283.41 27.4297C1293.53 27.4282 1303.48 29.9427 1312.39 34.7467C1321.29 39.5507 1328.86 46.4934 1334.41 54.9497C1340.27 51.633 1346.9 49.9115 1353.64 49.9571C1360.38 50.0027 1366.98 51.8137 1372.8 55.2095C1378.62 58.6052 1383.45 63.4671 1386.8 69.3101C1390.15 75.1531 1391.91 81.7731 1391.91 88.5097H1222.31C1222.31 80.4869 1223.89 72.5426 1226.96 65.1308C1230.03 57.7189 1234.53 50.9846 1240.21 45.3125C1245.88 39.6405 1252.62 35.1418 1260.03 32.0734C1267.44 29.005 1275.39 27.4271 1283.41 27.4297Z" fill="#D2CAFC" fill-opacity="0.5"/>
<path fill-rule="evenodd" clip-rule="evenodd" d="M78.1 322C88.2162 321.999 98.1739 324.513 107.077 329.317C115.979 334.121 123.548 341.064 129.1 349.52C134.963 346.203 141.594 344.482 148.331 344.527C155.067 344.573 161.674 346.384 167.492 349.78C173.31 353.176 178.136 358.037 181.489 363.88C184.842 369.723 186.604 376.343 186.6 383.08H17C17 375.057 18.5804 367.113 21.6512 359.701C24.7221 352.289 29.2231 345.555 34.897 339.883C40.5709 334.211 47.3066 329.712 54.7195 326.644C62.1324 323.575 70.0772 321.997 78.1 322Z" fill="#D2CAFC" fill-opacity="0.5"/>
<path d="M1136.15 300.24C1138.96 300.24 1141.24 297.961 1141.24 295.15C1141.24 292.338 1138.96 290.06 1136.15 290.06C1133.33 290.06 1131.06 292.338 1131.06 295.15C1131.06 297.961 1133.33 300.24 1136.15 300.24Z" fill="#6950F6" stroke="#D2CAFC" stroke-miterlimit="10"/>
<path d="M1204.3 265.51C1204.3 265.51 1214.81 261.57 1214.06 288.7" stroke="#D2CAFC" stroke-width="3" stroke-miterlimit="10" stroke-linecap="round"/>
<path opacity="0.7" d="M1023.86 440.859H682.606V648.269H1023.86V440.859Z" fill="url(#paint1_linear)"/>
<path opacity="0.15" d="M597.321 251.24C597.321 251.24 627.681 63.8498 770.571 90.6098C913.461 117.37 896.891 190.39 1005 194.61C1113.11 198.83 1150.11 326.37 1089 395.78C1027.89 465.19 971.171 410.6 805.311 459.97C557.761 533.62 597.321 251.24 597.321 251.24Z" fill="#D2CAFC"/>
<path d="M1182.05 650.29H1186.52L1156.47 514.39L1142.88 514.85L1158.09 567.07L1125.06 568.11L1123.18 568.16L1119.49 568.28L1120.42 522.7L1120.58 514.91L1107.02 514.39L1108.85 568.61L1071.21 569.79L1085.5 522.7L1087.35 516.61L1072.07 516.65L1070.7 522.7L1041.46 650.25H1046.71L1068.17 579.82L1109.18 578.25L1111.58 649.94H1117.84L1119.29 577.86L1119.49 577.85L1119.89 577.83L1160.77 576.27L1182.05 650.29Z" fill="#9085CB"/>
<path d="M1039.48 509.11C1052.25 502.85 1103.85 506.23 1103.85 506.23C1103.85 506.23 1090.35 321.79 1109.19 320.34C1128.03 318.89 1176.01 309.54 1177.33 336.23C1178.74 364.61 1174.59 517.17 1163.69 517.17C1138.84 517.17 1063.14 522.57 1040.28 517.17C1034.39 515.8 1039.48 509.11 1039.48 509.11Z" fill="#9085CB"/>
<path opacity="0.7" d="M1023.86 430.859H682.606V440.859H1023.86V430.859Z" fill="#D2CAFC"/>
<path d="M816.636 338.22L848.526 431.41H992.916L991.846 426.61L933.466 424.8L906.566 338.17L816.636 338.22Z" fill="#D2CAFC"/>
<path d="M882.476 388.09C883.096 391.56 881.196 394.8 878.236 395.33C875.276 395.86 872.366 393.47 871.746 389.99C871.126 386.51 873.036 383.28 875.996 382.76C878.956 382.24 881.856 384.62 882.476 388.09Z" fill="white"/>
<path fill-rule="evenodd" clip-rule="evenodd" d="M977.426 485C968.616 479.71 953.826 486.51 953.836 494.08C953.836 516.73 974.536 623.46 975.616 630.21C976.696 636.96 988.256 638.74 988.926 630.21C989.996 616.67 991.986 569.81 989.996 548.12C989.176 539.17 988.286 530.64 987.416 523.03C998.269 542.617 1015.04 570.66 1037.74 607.16L1050.06 601.53C1040.38 569.643 1032.45 547.133 1026.26 534C1015.65 511.51 1005.71 492.25 1001.53 485.47C994.936 474.85 983.486 478.57 977.426 485Z" fill="#C08356"/>
<path fill-rule="evenodd" clip-rule="evenodd" d="M1049.18 583.869L1006.89 483.669C996.746 467.379 968.346 486.989 971.796 496.439C979.646 517.909 1019.54 587.389 1021.88 593.779L1049.18 583.869Z" fill="#411CB5"/>
<path fill-rule="evenodd" clip-rule="evenodd" d="M1061.04 615.69L1049.13 591L1011.69 639.51" fill="#1F0744"/>
<path fill-rule="evenodd" clip-rule="evenodd" d="M989.376 650.32L989.466 622.92L934.566 650.14" fill="#1F0744"/>
<path fill-rule="evenodd" clip-rule="evenodd" d="M950.876 490.049C950.876 519.649 964.876 588.679 964.936 595.199H995.176C991.706 534.049 989.176 502.469 990.466 501.809C992.396 500.809 1069.63 509.519 1092.78 509.519C1126.18 509.519 1140 488.459 1141.12 449.449H1074.96C1061.49 450.889 991.226 465.059 965.136 469.929C953.956 471.999 950.876 481.899 950.876 490.049Z" fill="#411CB5"/>
<path opacity="0.3" d="M1021.31 501.34C1001.43 500.44 991.496 497.76 986.666 495.67C985.295 495.173 984.03 494.424 982.936 493.46C982.754 493.238 982.493 493.095 982.207 493.061C981.922 493.028 981.635 493.106 981.406 493.28C981.292 493.367 981.196 493.476 981.125 493.601C981.053 493.725 981.008 493.863 980.99 494.005C980.972 494.148 980.983 494.292 981.022 494.43C981.061 494.569 981.127 494.698 981.216 494.81C981.376 495.02 982.316 496.07 985.216 497.4C985.191 497.546 985.191 497.694 985.216 497.84C985.296 498.32 991.776 546.58 986.116 558.04C985.981 558.295 985.949 558.592 986.027 558.869C986.105 559.147 986.288 559.383 986.536 559.53C986.702 559.621 986.887 559.669 987.076 559.67C987.277 559.676 987.475 559.629 987.651 559.532C987.827 559.435 987.974 559.293 988.076 559.12C988.741 557.896 989.245 556.592 989.576 555.24L991.866 585.11C991.73 585.085 991.591 585.085 991.456 585.11C975.326 587.38 965.336 585 965.236 584.98C964.952 584.91 964.652 584.955 964.402 585.106C964.151 585.257 963.971 585.501 963.901 585.785C963.831 586.069 963.876 586.369 964.027 586.619C964.178 586.87 964.422 587.05 964.706 587.12C969.012 587.999 973.402 588.398 977.796 588.31C982.48 588.301 987.158 587.967 991.796 587.31C991.888 587.286 991.978 587.256 992.066 587.22L992.476 592.66C992.501 592.934 992.628 593.189 992.832 593.374C993.035 593.559 993.301 593.661 993.576 593.66H993.656C993.943 593.634 994.208 593.498 994.395 593.279C994.582 593.06 994.675 592.777 994.656 592.49C994.656 592.49 990.656 503.2 987.576 498.38C993.066 500.38 1003.13 502.73 1021.31 503.55H1021.36C1021.63 503.551 1021.9 503.449 1022.1 503.264C1022.3 503.079 1022.43 502.824 1022.46 502.55C1022.48 502.392 1022.46 502.231 1022.41 502.079C1022.36 501.928 1022.28 501.789 1022.17 501.673C1022.06 501.557 1021.92 501.467 1021.77 501.41C1021.63 501.352 1021.47 501.328 1021.31 501.34V501.34Z" fill="#1F0744"/>
<g opacity="0.3">
<path opacity="0.3" d="M1016.89 580.52C1016.61 580.516 1016.34 580.407 1016.14 580.215C1015.94 580.023 1015.82 579.762 1015.8 579.485C1015.79 579.208 1015.88 578.935 1016.05 578.721C1016.23 578.507 1016.48 578.367 1016.76 578.33C1016.86 578.33 1027.03 577.03 1041.3 569.25C1041.42 569.156 1041.57 569.091 1041.73 569.059C1041.88 569.028 1042.04 569.03 1042.2 569.066C1042.35 569.102 1042.5 569.171 1042.62 569.269C1042.75 569.367 1042.85 569.49 1042.92 569.631C1043 569.772 1043.04 569.927 1043.05 570.086C1043.05 570.244 1043.03 570.403 1042.97 570.55C1042.91 570.697 1042.82 570.83 1042.7 570.939C1042.58 571.047 1042.45 571.13 1042.3 571.18C1027.62 579.18 1017.4 580.46 1016.97 580.51L1016.89 580.52Z" fill="#1F0744"/>
</g>
<path fill-rule="evenodd" clip-rule="evenodd" d="M996.046 427.059L963.346 425.169C951.212 430.503 945.062 432.169 944.896 430.169C944.646 427.259 948.586 426.699 948.736 424.709C948.886 422.719 943.646 420.389 938.576 418.399C933.506 416.409 935.996 414.919 937.706 414.399C945.184 413.894 952.696 414.409 960.036 415.929L997.386 409.069L996.046 427.059Z" fill="#C08356"/>
<path fill-rule="evenodd" clip-rule="evenodd" d="M1035.41 396.16C1035.41 396.16 1021.33 394.84 1017.11 387.43C1012.51 379.36 1008.38 372.04 1008.38 372.04C1008.38 372.04 1003.08 362.8 1001.63 363.28C1001.32 363.378 1001.03 363.542 1000.79 363.761C1000.55 363.981 1000.36 364.25 1000.24 364.55C1000.11 364.85 1000.06 365.174 1000.07 365.498C1000.08 365.823 1000.17 366.141 1000.32 366.43C1000.86 367.68 1002.93 375.13 1002.93 375.13C1001.44 375.193 999.978 375.532 998.616 376.13C996.786 376.93 992.346 385.25 992.046 386.22C991.764 387.069 991.605 387.955 991.576 388.85C991.738 389.418 992.045 389.935 992.466 390.35C992.835 390.718 993.293 390.983 993.796 391.12C993.848 391.141 993.896 391.172 993.937 391.211C993.977 391.251 994.01 391.298 994.032 391.35C994.054 391.402 994.066 391.458 994.067 391.514C994.068 391.571 994.057 391.627 994.036 391.68C993.876 392 993.376 392.49 991.976 393.14C989.456 394.33 986.506 395.51 986.506 395.51C986.506 395.51 984.806 396.25 985.686 397.7C985.686 397.7 986.376 398.91 991.306 397.7C994.919 396.651 998.676 396.181 1002.44 396.31C1006.68 396.39 1009.16 397.14 1010.92 398.31C1012.68 399.48 1026.49 407.42 1026.49 407.42L1035.41 396.16Z" fill="#C08356"/>
<path fill-rule="evenodd" clip-rule="evenodd" d="M1114.13 348L1086.66 351.78L1086.79 318.23C1079.99 323.71 1073.27 324.32 1069.73 323.91C1060.85 322.91 1055.49 294.18 1060.42 280.91C1065.35 267.64 1098.71 257.56 1103.8 281.82C1105.56 290.24 1103.04 298.32 1098.61 305.23L1114.13 348Z" fill="#C08356"/>
<path fill-rule="evenodd" clip-rule="evenodd" d="M1094.13 295.999C1094 295.097 1093.7 294.228 1093.24 293.441C1092.78 292.654 1092.18 291.966 1091.45 291.415C1090.72 290.865 1089.9 290.462 1089.02 290.231C1088.14 290 1087.22 289.945 1086.32 290.069C1085.55 290.219 1084.83 290.533 1084.2 290.989C1083.57 291.445 1083.05 292.032 1082.67 292.709C1081.97 290.66 1081.46 288.551 1081.15 286.409C1080.85 284.342 1080.81 282.245 1081.05 280.169C1076.67 280.524 1072.28 280.383 1067.94 279.749C1061.87 280.259 1059.34 276.659 1058.5 270.549C1057.63 264.229 1059.14 259.089 1065.5 258.229C1071.86 257.369 1077.59 260.319 1078.5 266.629C1079.7 266.449 1080.93 266.289 1082.18 266.159C1087.91 265.468 1093.71 265.643 1099.39 266.679C1100.21 266.817 1101.02 267.038 1101.8 267.339C1102.88 267.672 1103.9 268.2 1104.8 268.899C1107.87 271.072 1110.34 273.976 1112.01 277.349C1118.39 272.909 1120.75 264.169 1136.93 261.949C1160.72 258.679 1163.93 299.239 1146.93 301.579C1134.41 303.299 1125.37 291.509 1115.02 286.319C1115.1 286.759 1115.17 287.209 1115.23 287.659C1117 300.509 1112.23 313.339 1103.34 314.569C1098.63 315.219 1093.25 310.939 1088.94 304.869C1092.6 304.069 1094.74 300.459 1094.13 295.999Z" fill="#ED3B3F"/>
<path d="M969.286 412C969.286 412 1029.5 405.2 1032.29 403.61C1035.08 402.02 1045.29 375.46 1048.29 368.98C1051.29 362.5 1061.59 346.78 1071.66 342.79C1079.51 339.68 1081.8 338.85 1081.8 338.85C1081.8 338.85 1087.56 345.15 1087.71 346.74C1088.27 352.65 1084.9 362.59 1081.51 372.36C1073.91 394.36 1046.6 434.58 1046.6 434.58C1046.6 434.58 1008.31 437.96 970.296 427.26L969.286 412Z" fill="#14B0BC"/>
<path d="M1084.31 338.16C1084.31 338.16 1090.69 350.73 1110.4 334.59C1110.4 334.59 1132.14 340.34 1136.12 349.75C1145.51 371.93 1146.62 409.2 1144.93 425.82C1143.24 442.44 1140.99 462.42 1140.99 462.42C1130.31 462.063 1119.63 463.007 1109.18 465.23C1092.56 468.9 1077.37 458.48 1055.4 452.23C1059.34 437.764 1062.53 423.105 1064.97 408.31C1069.48 381.83 1058.78 357.06 1058.78 357.06C1058.78 357.06 1064.13 341.07 1084.31 338.16Z" fill="#14B0BC"/>
<path d="M1022.74 392C1022.74 392 1048.49 395.55 1066.93 400.48C1075.63 402.81 1082.7 405.48 1084.68 408.14C1086.9 411.14 1093.15 375.37 1093.15 375.37C1093.15 375.37 1099.03 346.09 1110.82 341.58C1120.01 338.06 1130.29 345.82 1130.29 345.82C1130.29 345.82 1136.29 354.23 1135.9 368.62C1134.8 412.27 1095.38 443.24 1095.38 443.24C1095.38 443.24 1071.54 451.31 1015.23 402.51L1022.74 392Z" fill="#14B0BC"/>
<g opacity="0.3">
<path opacity="0.3" d="M1093.55 446.069C1084.17 446.069 1060.85 441.429 1019.81 405.869C1019.7 405.785 1019.62 405.68 1019.55 405.562C1019.49 405.443 1019.45 405.314 1019.44 405.18C1019.43 405.047 1019.45 404.912 1019.49 404.785C1019.53 404.658 1019.59 404.54 1019.68 404.439C1019.77 404.338 1019.88 404.255 1020 404.196C1020.12 404.137 1020.25 404.103 1020.38 404.096C1020.52 404.088 1020.65 404.108 1020.78 404.153C1020.9 404.198 1021.02 404.268 1021.12 404.359C1072.35 448.749 1095.29 442.109 1097.35 441.579C1099.94 439.479 1135.35 412.249 1136.35 372.279C1136.35 372.014 1136.45 371.76 1136.64 371.572C1136.83 371.385 1137.08 371.279 1137.35 371.279C1137.61 371.279 1137.87 371.385 1138.05 371.572C1138.24 371.76 1138.35 372.014 1138.35 372.279C1139.05 417.039 1098.82 445.149 1098.43 445.459L1098.59 445.399L1098.43 445.459C1096.84 445.909 1095.19 446.114 1093.55 446.069V446.069Z" fill="#1F0744"/>
</g>
<path opacity="0.3" d="M1072.13 376.64C1072.13 376.64 1070.52 397.26 1066.2 403.08L1070.63 404.08L1072.13 376.64Z" fill="#1F0744"/>
<path d="M1086.07 408.91C1085.72 408.658 1085.42 408.334 1085.21 407.96C1085 407.586 1084.86 407.169 1084.83 406.74C1084.56 405.419 1084.37 404.083 1084.27 402.74C1084.12 401.08 1083.97 399.09 1083.98 396.64C1083.97 395.303 1084.05 393.967 1084.22 392.64C1084.4 391.21 1084.67 389.791 1085.01 388.39C1085.67 385.64 1086.4 383.33 1086.95 381.39C1087.22 380.39 1087.45 379.52 1087.66 378.6C1087.87 377.68 1088.07 376.6 1088.34 375.6C1088.71 373.805 1089.57 372.148 1090.83 370.81C1091.89 369.81 1092.83 369.75 1093.43 370.15C1094.02 370.723 1094.43 371.462 1094.61 372.27C1094.92 373.19 1095.28 374.27 1095.7 375.84C1095.95 376.804 1096.15 377.783 1096.3 378.77C1096.46 380.076 1096.51 381.395 1096.45 382.71C1096.26 385.438 1095.83 388.143 1095.15 390.79C1094.51 393.41 1094.03 395.43 1093.51 397.79C1093.05 399.99 1092.38 402.14 1091.51 404.21C1090.86 405.787 1089.86 407.198 1088.6 408.34C1087.6 409.06 1086.69 409.24 1086.07 408.91Z" fill="#14B0BC"/>
<path opacity="0.3" d="M1101.8 411.73C1100.56 411.35 1099.31 411 1098.07 410.64C1098.86 402.13 1100.96 389.21 1102.63 380.84C1101.71 382.925 1100.91 385.062 1100.24 387.24C1098.61 395.37 1097.01 401.83 1096.24 410.09C1089.78 408.25 1083.26 406.633 1076.68 405.24C1076.07 405.12 1069.56 403.81 1070.68 404.04C1077.68 405.53 1089.53 409.53 1096.43 411.52H1096.57C1097.95 411.92 1099.33 412.32 1100.7 412.74C1101.23 413 1102.88 412.06 1101.8 411.73Z" fill="#1F0744"/>
<g opacity="0.3">
<path opacity="0.3" d="M1080.24 342.83C1084.04 346.23 1090.01 346.89 1094.91 346.77C1097.61 346.66 1100.27 345.978 1102.7 344.77C1105.6 343.43 1108.46 342.01 1111.34 340.62C1112.54 340.04 1111.44 339.36 1110.56 339.78L1103.32 343.26C1100.99 344.572 1098.41 345.373 1095.76 345.61C1091.23 345.77 1085.54 345.18 1082.03 342.04C1081.5 341.57 1079.69 342.32 1080.24 342.81V342.83Z" fill="#1F0744"/>
</g>
<g opacity="0.3">
<path opacity="0.3" d="M1117.35 340.059C1117.04 339.989 1116.72 339.989 1116.41 340.059C1115.99 340.121 1115.6 340.267 1115.25 340.489C1115.02 340.622 1114.83 340.803 1114.68 341.019C1114.53 341.235 1114.43 341.481 1114.39 341.739C1114.37 341.79 1114.37 341.843 1114.38 341.893C1114.4 341.944 1114.42 341.991 1114.46 342.029C1114.54 342.111 1114.65 342.167 1114.77 342.189C1115.09 342.309 1115.42 342.39 1115.77 342.429C1116.32 342.473 1116.87 342.347 1117.36 342.069C1117.5 341.99 1117.64 341.889 1117.76 341.769C1117.87 341.661 1117.96 341.536 1118.04 341.399C1118.11 341.275 1118.15 341.138 1118.16 340.997C1118.17 340.856 1118.15 340.713 1118.11 340.579C1118.1 340.541 1118.08 340.505 1118.06 340.474C1118.03 340.443 1118 340.418 1117.97 340.399C1117.9 340.334 1117.81 340.292 1117.72 340.279C1117.48 340.215 1117.23 340.215 1117 340.279C1116.75 340.329 1116.53 340.447 1116.36 340.619L1116.24 340.759C1116.2 340.803 1116.18 340.853 1116.17 340.907C1116.16 340.961 1116.16 341.017 1116.18 341.069C1116.21 341.146 1116.23 341.227 1116.24 341.309V341.159C1116.25 341.239 1116.25 341.32 1116.24 341.399L1116.31 341.239C1116.27 341.31 1116.23 341.378 1116.19 341.439L1116.31 341.299L1116.17 341.429L1116.34 341.299L1116.2 341.389L1116.42 341.269H1116.31L1116.56 341.179H1116.42H1116.68H1116.77H1116.48H1116.7C1116.46 341.136 1116.22 341.072 1116 340.989L1116.38 341.439C1116.38 341.336 1116.41 341.235 1116.45 341.139L1116.39 341.299C1116.43 341.201 1116.48 341.107 1116.55 341.019L1116.43 341.169C1116.49 341.098 1116.55 341.031 1116.63 340.969L1116.46 341.109L1116.63 340.999L1116.42 341.109L1116.59 341.039L1116.34 341.129H1116.49H1116.23H1116.31H1116.09H1116.25C1116.48 341.189 1116.73 341.189 1116.97 341.129C1117.21 341.076 1117.43 340.958 1117.61 340.789C1117.72 340.679 1117.86 340.509 1117.8 340.339C1117.76 340.263 1117.7 340.195 1117.64 340.143C1117.57 340.091 1117.49 340.056 1117.41 340.039L1117.35 340.059Z" fill="#1F0744"/>
</g>
<g opacity="0.3">
<path opacity="0.3" d="M1122.52 341.47C1122.27 341.476 1122.02 341.513 1121.78 341.58C1121.54 341.644 1121.31 341.735 1121.1 341.85C1120.82 341.993 1120.57 342.167 1120.34 342.37C1120.24 342.461 1120.16 342.566 1120.09 342.68C1120.01 342.792 1119.96 342.924 1119.96 343.06C1119.95 343.219 1120 343.376 1120.1 343.5C1120.18 343.591 1120.27 343.663 1120.39 343.71C1120.66 343.832 1120.96 343.89 1121.27 343.88C1121.82 343.869 1122.36 343.699 1122.83 343.39C1123.24 343.122 1123.55 342.715 1123.7 342.24C1123.71 342.158 1123.69 342.075 1123.66 342.001C1123.62 341.928 1123.56 341.868 1123.49 341.83C1123.29 341.729 1123.06 341.691 1122.84 341.72C1122.61 341.724 1122.38 341.793 1122.19 341.921C1122 342.049 1121.85 342.229 1121.76 342.44V342.53L1121.82 342.37C1121.77 342.474 1121.72 342.571 1121.65 342.66L1121.77 342.51C1121.7 342.594 1121.63 342.671 1121.55 342.74L1121.72 342.59C1121.66 342.645 1121.59 342.692 1121.52 342.73L1121.74 342.61L1121.54 342.7L1121.79 342.61L1121.58 342.67H1121.84H1121.64H1121.89C1121.82 342.68 1121.76 342.68 1121.7 342.67H1121.92H1121.75L1121.93 342.74L1121.81 342.67L1121.94 342.78L1121.88 342.71L1121.96 342.85C1121.95 342.817 1121.95 342.782 1121.96 342.75V342.91C1121.95 342.867 1121.95 342.823 1121.96 342.78L1121.9 342.94C1121.91 342.893 1121.94 342.85 1121.97 342.81L1121.85 342.97L1122.02 342.8L1121.85 342.94L1122.14 342.74L1121.92 342.86L1122.24 342.72L1121.99 342.81L1122.27 342.73L1122.01 342.78C1122.11 342.77 1122.22 342.77 1122.33 342.78C1122.59 342.754 1122.84 342.665 1123.06 342.52C1123.14 342.472 1123.22 342.406 1123.28 342.327C1123.34 342.248 1123.38 342.157 1123.41 342.06C1123.42 341.978 1123.4 341.895 1123.37 341.821C1123.33 341.748 1123.27 341.688 1123.2 341.65C1122.99 341.557 1122.77 341.522 1122.55 341.55L1122.52 341.47Z" fill="#1F0744"/>
</g>
<g opacity="0.3">
<path opacity="0.3" d="M1127.54 343.2C1127.02 343.252 1126.52 343.41 1126.07 343.665C1125.61 343.919 1125.22 344.265 1124.91 344.68C1124.83 344.768 1124.77 344.877 1124.75 344.994C1124.74 345.111 1124.75 345.231 1124.8 345.34C1124.86 345.449 1124.94 345.541 1125.05 345.609C1125.15 345.677 1125.27 345.719 1125.4 345.73C1125.69 345.785 1125.99 345.785 1126.29 345.73C1126.67 345.688 1127.04 345.58 1127.39 345.41C1127.98 345.13 1128.46 344.649 1128.74 344.05C1128.79 343.963 1128.81 343.865 1128.81 343.765C1128.81 343.665 1128.79 343.567 1128.74 343.48C1128.67 343.396 1128.59 343.326 1128.49 343.274C1128.4 343.223 1128.29 343.191 1128.19 343.18C1127.94 343.142 1127.69 343.179 1127.46 343.288C1127.24 343.397 1127.05 343.572 1126.93 343.79L1126.83 343.99L1126.94 343.81C1126.86 343.933 1126.77 344.045 1126.67 344.14L1126.84 343.98C1126.74 344.072 1126.64 344.156 1126.53 344.23L1126.74 344.1C1126.62 344.168 1126.5 344.228 1126.38 344.28L1126.63 344.18C1126.51 344.227 1126.39 344.261 1126.27 344.28L1126.53 344.23C1126.41 344.24 1126.3 344.24 1126.19 344.23H1126.44H1126.1L1126.59 345.23C1126.67 345.107 1126.77 344.99 1126.88 344.88L1126.71 345.05C1126.84 344.925 1126.98 344.812 1127.14 344.71L1126.93 344.84C1127.07 344.75 1127.23 344.673 1127.39 344.61L1127.14 344.71C1127.29 344.653 1127.45 344.61 1127.61 344.58L1127.35 344.63H1127.44C1127.7 344.612 1127.95 344.518 1128.17 344.36C1128.34 344.231 1128.46 344.037 1128.5 343.82C1128.5 343.722 1128.49 343.622 1128.45 343.533C1128.4 343.443 1128.34 343.366 1128.26 343.31C1128.06 343.176 1127.82 343.115 1127.59 343.14L1127.54 343.2Z" fill="#1F0744"/>
</g>
<path d="M1088.21 308.97C1094.91 308.97 1100.34 302.747 1100.34 295.07C1100.34 287.393 1094.91 281.17 1088.21 281.17C1081.51 281.17 1076.08 287.393 1076.08 295.07C1076.08 302.747 1081.51 308.97 1088.21 308.97Z" fill="#D2CAFC"/>
<path d="M1089.13 294.67C1088.99 294.66 1088.86 294.677 1088.74 294.719C1088.61 294.761 1088.49 294.828 1088.39 294.916C1088.29 295.003 1088.21 295.11 1088.16 295.229C1088.1 295.348 1088.06 295.477 1088.06 295.61C1088.06 295.77 1086.86 312.25 1075.8 314.35C1064.52 316.5 1060.1 313.83 1060.07 313.81C1059.94 313.267 1059.64 312.781 1059.21 312.421C1058.78 312.062 1058.25 311.847 1057.7 311.81C1056.98 311.951 1056.33 312.338 1055.87 312.903C1055.4 313.469 1055.15 314.178 1055.15 314.91C1055.15 315.641 1055.4 316.35 1055.87 316.916C1056.33 317.481 1056.98 317.868 1057.7 318.01C1058.25 317.971 1058.78 317.757 1059.2 317.397C1059.63 317.037 1059.93 316.551 1060.06 316.01C1062.52 316.881 1065.12 317.284 1067.74 317.2C1070.58 317.175 1073.42 316.883 1076.21 316.33C1081.45 315.33 1085.51 311.42 1087.97 305.02C1089.09 302.041 1089.81 298.922 1090.09 295.75C1090.1 295.615 1090.08 295.48 1090.04 295.352C1089.99 295.223 1089.93 295.105 1089.84 295.005C1089.75 294.904 1089.64 294.822 1089.52 294.764C1089.39 294.707 1089.26 294.675 1089.13 294.67Z" fill="#6950F6"/>
<path fill-rule="evenodd" clip-rule="evenodd" d="M632.581 517.739C633.471 518.669 634.581 578.839 642.101 634.169L656.621 639.649C659.071 575.829 653.861 512.459 649.351 508.149C642.581 501.669 631.221 516.349 632.581 517.739Z" fill="#C08356"/>
<path fill-rule="evenodd" clip-rule="evenodd" d="M582.331 521.14C581.601 522.14 587.751 579.28 587.271 632.61L574.171 639.55C564.171 579.36 561.531 518.69 565.291 514.06C570.921 507.11 583.431 519.66 582.331 521.14Z" fill="#C08356"/>
<path fill-rule="evenodd" clip-rule="evenodd" d="M678.091 649.11L637.171 648.51L637.471 628.05L678.091 649.11Z" fill="#1F0744"/>
<path fill-rule="evenodd" clip-rule="evenodd" d="M551.431 651.75L592.151 647.75L590.151 627.39L551.431 651.75Z" fill="#1F0744"/>
<path d="M579.981 391.999C579.981 391.999 602.581 396.889 658.621 390.529L659.461 617.239L637.661 617.889L626.581 510.209L613.581 434.389C613.581 434.389 598.311 478.589 592.321 490.579C587.551 500.119 586.031 500.769 587.591 540.939C589.591 591.289 590.801 618.879 590.801 618.879L569.001 619.539C569.001 619.539 546.001 513.589 552.211 493.609C558.421 473.629 579.981 391.999 579.981 391.999Z" fill="#14B0BC"/>
<g opacity="0.3">
<path opacity="0.3" d="M635.001 396.6C639.402 403.4 645.54 408.9 652.781 412.53C653.148 412.683 653.548 412.74 653.943 412.696C654.339 412.653 654.716 412.509 655.041 412.28C655.491 411.98 655.971 411.22 655.271 410.87C648.198 407.322 642.207 401.942 637.921 395.29C637.261 394.29 634.201 395.37 635.001 396.6V396.6Z" fill="#1F0744"/>
</g>
<g opacity="0.3">
<path opacity="0.3" d="M577.201 415.29C586.872 411.301 595.428 405.02 602.131 396.99C602.621 396.4 601.721 396.14 601.291 396.12C600.902 396.103 600.514 396.171 600.154 396.318C599.793 396.464 599.468 396.687 599.201 396.969C592.958 404.466 584.991 410.338 575.981 414.08C575.561 414.25 574.691 414.75 575.121 415.29C575.551 415.83 576.751 415.48 577.201 415.29V415.29Z" fill="#1F0744"/>
</g>
<g opacity="0.3">
<path opacity="0.3" d="M615.261 435.14L623.591 433.38C624.007 433.307 624.411 433.176 624.791 432.99C624.991 432.88 625.351 432.67 625.421 432.42C625.611 431.81 624.421 431.89 624.111 431.95L615.781 433.71C615.36 433.779 614.952 433.91 614.571 434.1C614.371 434.21 614.021 434.42 613.941 434.67C613.761 435.28 614.991 435.2 615.261 435.14Z" fill="#1F0744"/>
</g>
<g opacity="0.3">
<path opacity="0.3" d="M599.581 432.419C603.493 432.705 607.331 433.634 610.941 435.169C611.315 435.283 611.709 435.315 612.095 435.261C612.482 435.208 612.853 435.071 613.181 434.859C613.571 434.619 614.181 433.959 613.471 433.669C609.451 431.982 605.181 430.968 600.831 430.669C600.44 430.642 600.047 430.704 599.683 430.852C599.319 430.999 598.994 431.227 598.731 431.519C598.301 432.159 599.111 432.369 599.581 432.409V432.419Z" fill="#1F0744"/>
</g>
<g opacity="0.3">
<path opacity="0.3" d="M640.581 540.68C640.191 540.68 640.801 540.68 640.911 540.68L641.541 540.77C641.981 540.84 642.411 540.94 642.841 541.04H642.971L643.271 541.1L644.271 541.33C644.811 541.44 645.351 541.55 645.891 541.64C648.729 542.089 651.631 541.891 654.381 541.06C655.001 540.87 655.881 540.32 655.681 539.54C655.481 538.76 654.411 538.7 653.801 538.88C651.43 539.593 648.921 539.716 646.491 539.24C644.656 538.759 642.782 538.441 640.891 538.29C640.201 538.29 639.221 538.83 639.141 539.58C639.061 540.33 639.991 540.58 640.611 540.58L640.581 540.68Z" fill="#1F0744"/>
</g>
<path opacity="0.3" d="M588.581 497.999C589.248 496.146 589.915 494.289 590.581 492.429C590.953 491.639 591.423 490.9 591.981 490.229C592.173 490.05 592.294 489.807 592.319 489.546C592.345 489.284 592.275 489.023 592.122 488.809C591.969 488.596 591.743 488.446 591.487 488.387C591.231 488.328 590.962 488.364 590.731 488.489C589.871 488.489 588.731 488.909 588.551 489.489C586.861 494.409 585.161 499.329 583.141 504.129C581.997 506.931 580.681 509.659 579.201 512.299C578.151 514.129 576.931 516.299 575.201 517.559C573.471 518.819 576.201 519.259 577.201 518.559C580.911 515.829 583.141 511.199 585.001 506.929C584.891 508.339 584.811 509.859 584.771 511.479C584.361 528.569 586.391 569.859 586.411 570.279L588.591 616.679L571.491 616.759C571.219 616.785 570.966 616.912 570.782 617.114C570.598 617.317 570.496 617.581 570.496 617.854C570.496 618.128 570.598 618.392 570.782 618.594C570.966 618.797 571.219 618.923 571.491 618.949V618.949L590.871 618.859L588.581 570.189C588.581 569.779 586.581 528.559 586.941 511.549C586.978 506.985 587.528 502.44 588.581 497.999V497.999Z" fill="#1F0744"/>
<g opacity="0.3">
<path opacity="0.3" d="M637.771 617.93L629.651 536.48C629.637 536.337 629.65 536.193 629.692 536.056C629.733 535.919 629.801 535.791 629.891 535.68C629.982 535.569 630.093 535.477 630.219 535.41C630.345 535.342 630.484 535.299 630.626 535.285C630.769 535.27 630.913 535.284 631.05 535.325C631.187 535.367 631.315 535.434 631.426 535.525C631.537 535.615 631.629 535.727 631.696 535.853C631.764 535.979 631.807 536.117 631.821 536.26L639.751 615.7L656.581 615.34C656.853 615.366 657.106 615.493 657.29 615.695C657.474 615.897 657.576 616.161 657.576 616.435C657.576 616.708 657.474 616.972 657.29 617.175C657.106 617.377 656.853 617.504 656.581 617.53L637.771 617.93Z" fill="#1F0744"/>
</g>
<path d="M626.871 188.74C618.231 187.33 609.551 196.93 605.611 211.51C604.889 211.373 604.151 211.346 603.421 211.43C601.231 211.43 600.311 215.48 600.311 220.29C600.311 224.4 601.611 227.83 603.311 228.75C603.311 230.05 603.431 231.34 603.561 232.58L602.461 244.67C602.39 245.626 602.135 246.56 601.711 247.42C601.069 248.606 600.726 249.931 600.711 251.28C600.711 256.85 608.831 263.57 615.801 263.57C617.991 263.664 620.185 263.577 622.361 263.31C623.442 263.102 624.454 262.627 625.304 261.928C626.155 261.23 626.817 260.33 627.231 259.31L627.741 258.12C627.879 257.795 627.993 257.461 628.081 257.12C628.427 255.538 628.555 253.916 628.461 252.3V248.71C633.701 243.51 637.961 234.57 639.611 223.99C642.411 206.14 636.701 190.35 626.871 188.74Z" fill="#FCDEAB"/>
<path d="M653.131 195.64C649.891 195.03 648.711 195.32 647.601 196.08C647.601 193.17 646.931 192.55 645.921 192.14C645.17 191.85 644.503 191.379 643.98 190.768C643.456 190.157 643.092 189.426 642.921 188.64C642.441 186.42 640.811 186.04 640.321 184.47C637.881 176.62 633.841 173.95 624.051 173.95C616.501 173.95 608.821 178.81 606.261 183.39C598.731 183.87 592.491 191.75 592.491 203.13C592.491 214.81 601.941 226.42 601.861 227.29C601.861 227.29 597.321 208.57 606.101 212.07C606.367 212.216 606.572 212.453 606.678 212.737C606.785 213.022 606.786 213.335 606.681 213.62C606.681 213.62 601.231 237.17 610.851 247.49C611.759 249.11 613.085 250.457 614.691 251.391C616.297 252.325 618.124 252.812 619.981 252.8C625.551 252.8 628.771 249.17 631.811 244.67C633.651 241.85 635.171 238.99 635.171 236.86C635.171 232.99 629.241 230.86 623.071 230.86C621.129 230.817 619.2 231.181 617.407 231.928C615.614 232.676 613.997 233.79 612.661 235.2C612.349 235.589 611.978 235.926 611.561 236.2C611.561 236.2 608.721 237.04 608.391 233.48C607.861 227.71 609.531 213.22 611.391 207.38C611.603 206.736 612.027 206.183 612.594 205.81C613.16 205.438 613.836 205.269 614.511 205.33C616.251 205.56 618.401 207.12 620.821 210.77C624.541 215.91 629.751 222.99 637.391 222.99C637.391 222.99 645.611 223.8 647.241 217.35C647.601 215.95 647.871 212.95 647.891 212.9C648.01 212.526 648.207 212.181 648.471 211.89C648.734 211.6 649.057 211.369 649.418 211.214C649.778 211.06 650.168 210.984 650.561 210.994C650.953 211.004 651.338 211.098 651.691 211.27C655.201 212.45 659.821 209.17 659.821 205.27C659.821 201.37 657.681 196.51 653.131 195.64Z" fill="#1F0744"/>
<path d="M602.741 246.76C602.741 246.76 575.741 254.84 564.131 259.99C558.271 262.59 547.341 282.68 552.221 318.31C552.221 318.31 565.221 322.31 574.991 312.01L575.491 296.01C575.491 296.01 572.241 368.57 577.281 393.79C577.281 393.79 638.611 398.79 658.621 390.54L657.951 315.98L658.461 303.82L658.621 317.33C658.621 317.33 665.621 323.02 682.701 316.68C682.701 316.68 676.061 277.39 666.461 261.93C661.351 253.7 658.311 252.6 655.071 251.03C649.871 248.51 626.601 247.4 626.601 247.4C626.601 247.4 634.031 263.99 617.921 263.02C596.881 261.07 602.741 246.76 602.741 246.76Z" fill="#1F0744"/>
<path opacity="0.3" d="M578.241 308.529L580.241 293.819C580.241 293.819 582.241 303.889 581.781 304.599C581.581 304.999 578.241 308.529 578.241 308.529Z" fill="#F2EAFC"/>
<path opacity="0.3" d="M655.301 293.149L654.691 299.719L659.001 305.679L655.301 293.149Z" fill="#F2EAFC"/>
<g opacity="0.3">
<path opacity="0.3" d="M575.451 358C578.031 358.19 580.451 359.29 582.911 359.94C585.431 360.602 588.025 360.938 590.631 360.94C591.421 360.97 592.202 360.761 592.871 360.34C593.331 360.02 593.341 359.62 592.681 359.62C590.071 359.618 587.474 359.261 584.961 358.56C582.481 357.86 580.101 356.88 577.491 356.7C576.699 356.656 575.915 356.866 575.251 357.3C574.761 357.64 574.811 357.98 575.451 358.02V358Z" fill="#F2EAFC"/>
</g>
<g opacity="0.3">
<path opacity="0.3" d="M656.021 376.759C653.421 378.419 650.111 379.109 647.151 379.759C644.042 380.487 640.888 381.012 637.711 381.329C637.091 381.389 635.981 381.539 635.591 382.109C635.201 382.679 635.921 382.749 636.361 382.709C640.185 382.315 643.98 381.673 647.721 380.789C651.371 379.939 655.271 378.949 658.461 376.899C659.001 376.559 658.821 376.199 658.261 376.129C657.469 376.079 656.682 376.29 656.021 376.729V376.759Z" fill="#F2EAFC"/>
</g>
<g opacity="0.3">
<path opacity="0.3" d="M576.241 389.44C581.812 390.567 587.456 391.292 593.131 391.61C597.941 391.86 602.751 391.83 607.571 391.9C616.191 392.04 624.751 392.05 633.351 391.36C640.255 390.803 647.127 389.898 653.941 388.65C654.321 388.58 655.111 388.38 655.131 387.89C655.151 387.4 654.571 387.29 654.201 387.36C635.011 390.87 615.591 391.12 596.201 390.36C589.935 390.128 583.698 389.392 577.551 388.16C577.289 388.103 577.017 388.109 576.757 388.179C576.498 388.248 576.259 388.379 576.061 388.56C575.801 388.89 575.781 389.3 576.281 389.4L576.241 389.44Z" fill="#F2EAFC"/>
</g>
<path d="M601.581 282.83C601.581 282.83 604.581 271.34 609.381 269.27C613.181 267.65 623.271 266.27 626.521 266.27C629.771 266.27 633.901 267.02 630.521 268.54L624.871 271.13C622.121 272.4 619.721 274.2 619.871 277.22C620.087 279.677 620.051 282.15 619.761 284.6C619.111 287.85 617.701 290.13 609.671 290.67C606.881 290.86 587.981 342.51 587.541 343.38C586.221 346.03 576.811 362.58 564.771 354.77C552.731 346.96 553.081 318 553.081 318L557.311 318.33C562.262 318.314 567.123 317.004 571.411 314.53C574.121 312.85 576.251 311.12 576.841 310.14L601.581 282.83Z" fill="#FCDEAB"/>
<path d="M638.581 260.699L657.401 259.129C657.906 259.088 658.414 259.171 658.88 259.371C659.345 259.57 659.755 259.881 660.074 260.275C660.392 260.67 660.609 261.136 660.706 261.633C660.804 262.131 660.778 262.644 660.631 263.129L650.581 296.869C650.398 297.475 650.035 298.011 649.54 298.406C649.045 298.801 648.442 299.036 647.811 299.079L627.611 300.419C627.101 300.452 626.59 300.358 626.124 300.146C625.659 299.934 625.253 299.61 624.942 299.204C624.632 298.797 624.426 298.321 624.344 297.816C624.262 297.311 624.305 296.793 624.471 296.309L635.961 262.789C636.151 262.227 636.5 261.73 636.964 261.36C637.429 260.989 637.99 260.76 638.581 260.699V260.699Z" fill="#D2CAFC"/>
<path d="M681.271 322.9L680.651 314.63C676.495 316.316 672.074 317.261 667.591 317.42C661.231 309.19 650.401 294.96 650.331 293.2C650.221 290.8 654.991 287.45 655.751 282.46C656.244 278.212 656.461 273.936 656.401 269.66C656.401 269.66 646.401 279.1 640.241 274.87C634.081 270.64 631.351 271.18 631.351 271.18C631.351 271.18 628.421 270.96 630.351 276.38C632.281 281.8 632.081 282.78 633.171 288.75C634.261 294.72 637.831 296.23 637.831 296.23L654.321 349.05C654.321 349.05 658.981 356.43 663.101 356.54C667.221 356.65 673.411 356.32 676.451 353.07C679.491 349.82 680.781 344.5 681.331 338.07C681.576 333.016 681.556 327.952 681.271 322.9Z" fill="#FCDEAB"/>
</g>
<defs>
<linearGradient id="paint0_linear" x1="2.53078e+06" y1="186985" x2="2.53078e+06" y2="234670" gradientUnits="userSpaceOnUse">
<stop stop-color="#D2CAFC" stop-opacity="0.5"/>
<stop offset="1" stop-color="white" stop-opacity="0"/>
</linearGradient>
<linearGradient id="paint1_linear" x1="853.236" y1="440.859" x2="853.236" y2="648.269" gradientUnits="userSpaceOnUse">
<stop stop-color="#D2CAFC" stop-opacity="0.5"/>
<stop offset="1" stop-color="white" stop-opacity="0"/>
</linearGradient>
<clipPath id="clip0">
<rect width="1466" height="769" fill="white"/>
</clipPath>
</defs>
</svg>
