<?xml version="1.0" encoding="utf-8"?>
<!-- Generator: Adobe Illustrator 23.0.1, SVG Export Plug-In . SVG Version: 6.00 Build 0)  -->
<svg version="1.1" xmlns="http://www.w3.org/2000/svg" xmlns:xlink="http://www.w3.org/1999/xlink" x="0px" y="0px"
	 viewBox="0 0 500 465" style="enable-background:new 0 0 500 465;" xml:space="preserve">
<style type="text/css">
	.st0{fill:#F5F5F5;}
	.st1{fill:#E0E0E0;}
	.st2{fill:#37474F;}
	.st3{fill:#FFFFFF;}
	.st4{fill:#455A64;}
	.st5{fill:#27DEBF;}
	.st6{opacity:0.81;fill:#E0E0E0;}
	.st7{opacity:0.15;}
	.st8{fill:#263238;}
	.st9{opacity:0.9;fill:#FFFFFF;}
	.st10{opacity:0.4;}
	.st11{fill:#F0F0F0;}
	.st12{opacity:0.5;fill:#455A64;}
	.st13{opacity:0.5;}
	.st14{fill:#211F54;}
	.st15{font-family:'Lobster-Regular';}
	.st16{font-size:24.2967px;}
	.st17{opacity:0.1;fill:#27DEBF;}
	.st18{opacity:0.15;fill:#27DEBF;}
	.st19{fill:#FFA8A7;}
	.st20{fill:#DA782D;}
	.st21{opacity:0.3;fill:#DA782D;}
	.st22{fill:#F28F8F;}
	.st23{fill:#FFBDA7;}
	.st24{fill:#E6E6E6;}
	.st25{fill:#F79776;}
	.st26{opacity:0.25;}
	.st27{opacity:0.1;}
	.st28{fill:#914F4E;}
	.st29{opacity:0.3;fill:#211F54;}
	.st30{opacity:0.3;}
	.st31{fill:#783736;}
</style>
<g id="Floor">
	<ellipse id="Floor_6_" class="st0" cx="244.99" cy="330.69" rx="225.05" ry="129.93"/>
</g>
<g id="Shadows">
	<ellipse id="Shadow_11_" class="st1" cx="283.51" cy="378.24" rx="41.38" ry="23.89"/>
	<ellipse id="Shadow_28_" class="st1" cx="391.16" cy="364.09" rx="41.38" ry="23.89"/>
	<ellipse id="Shadow_29_" class="st1" cx="164.82" cy="414.06" rx="41.38" ry="23.89"/>
</g>
<g id="Plants">
	<g id="Plants_1_">
		<g id="XMLID_3168_">
			<path id="XMLID_3172_" class="st2" d="M96.98,335.5c0,0-1.09-25.26-11.67-39.32c-10.59-14.05-23.57-16.08-30.01-12.13
				c-4.69,2.88-4.06,11.44,4.07,17.03c8.13,5.59,23.8,19.81,26.25,29.1L96.98,335.5z"/>
			<g id="XMLID_3169_">
				<path id="XMLID_3170_" class="st3" d="M90.03,331.82c-0.36-0.02-0.63-0.33-0.61-0.68c1.09-22.92-19.02-37.21-24.47-39.78
					c-0.33-0.16-0.47-0.55-0.31-0.87c0.16-0.33,0.55-0.46,0.87-0.31c5.61,2.65,26.34,17.39,25.22,41.03
					c-0.02,0.36-0.32,0.64-0.69,0.62C90.04,331.82,90.03,331.82,90.03,331.82z"/>
			</g>
		</g>
		<g id="XMLID_3162_">
			<path id="XMLID_3167_" class="st4" d="M91.95,327.52c-1.47-0.21-2.9-0.47-3.86-1.54c-1.23-1.36-1.13-3.42-1.7-5.17
				c-0.93-2.86-3.75-4.8-6.69-5.41s-6-0.11-8.92,0.61c-5.9,1.45-11.57-2.18-17.48-1.75c-2.11,0.15-4.25,0.65-5.99,1.87
				c-1.73,1.22-2.98,3.25-2.87,5.36c0.1,1.76,1.12,3.37,2.44,4.55c1.31,1.18,2.91,2,4.48,2.8c1.73,0.88,3.46,1.76,5.19,2.64
				c0.86,0.44,1.73,0.89,2.41,1.56c1.28,1.28,2.17,3.75,1.81,5.52c-0.4,1.98-2.02,3.52-2.51,5.48c-0.63,2.57,0.94,5.32,3.2,6.71
				c2.26,1.39,5.04,1.65,7.68,1.5c2.65-0.15,5.27-0.68,7.92-0.73c1.79-0.03,3.65,0.18,5.16,1.12c1.85,1.15,2.93,3.22,3.63,5.28
				c0.45,1.33,0.8,2.72,1.62,3.86c0.86,1.17,2.16,1.95,3.52,2.45c2.61,0.96,5.65,0.98,8.26-0.02c2.19-0.84,3.26-3.31,4.07-5.45
				c0.82-2.15,1.21-4.71,1.15-6.98c-0.15-5.95-1.49-12.37-4.07-17.74c-1.23-2.56-3.02-5.12-5.72-6.01
				C93.83,327.77,92.88,327.66,91.95,327.52z"/>
			<g id="XMLID_3165_">
				<path id="XMLID_3166_" class="st3" d="M97.68,354.99c-0.24,0-0.47-0.15-0.55-0.39c-6.17-17.69-35.36-33.08-46.04-34.85
					c-0.32-0.05-0.53-0.35-0.48-0.67c0.05-0.32,0.36-0.54,0.67-0.48c10.88,1.8,40.65,17.53,46.95,35.61
					c0.11,0.3-0.05,0.64-0.36,0.74C97.81,354.98,97.74,354.99,97.68,354.99z"/>
			</g>
			<g id="XMLID_3163_">
				<path id="XMLID_3164_" class="st3" d="M71.44,345.3c-0.17,0-0.35-0.08-0.46-0.23c-0.2-0.26-0.15-0.62,0.11-0.82
					c0.27-0.2,6.61-4.99,16.22-5.21h0.01c0.32,0,0.58,0.25,0.58,0.57c0.01,0.32-0.25,0.59-0.57,0.6
					c-9.23,0.21-15.47,4.92-15.53,4.97C71.69,345.26,71.57,345.3,71.44,345.3z"/>
			</g>
		</g>
	</g>
</g>
<g id="Window">
	<g id="XMLID_3538_">
		<g id="XMLID_4068_">
			<path id="XMLID_4261_" class="st4" d="M97.99,368.68c-1.17-0.67-2.12-2.39-2.12-3.83l0-208.4c0-1.44,1.01-3.19,2.26-3.91
				L343.3,11.01c1.25-0.72,3.2-0.76,4.37-0.08c1.17,0.67,2.12,2.39,2.12,3.83l0,208.4c0,1.44-1.01,3.19-2.26,3.91L102.36,368.6
				C101.11,369.32,99.16,369.35,97.99,368.68z"/>
			<path id="XMLID_4259_" class="st5" d="M101.93,368.79c-0.03,0.01-0.06,0.03-0.09,0.03c-0.07,0.04-0.15,0.06-0.22,0.08
				c-0.05,0.02-0.1,0.04-0.17,0.05c-0.09,0.03-0.2,0.06-0.31,0.07c-0.06,0.02-0.14,0.04-0.21,0.04c-0.1,0.02-0.23,0.04-0.34,0.05
				c-0.93,0.1-1.9-0.04-2.59-0.45c-1.18-0.68-2.11-2.39-2.11-3.82l-0.01-181.68l4.24,2.45v181.67c0,1.02,0.51,1.61,1.25,1.61
				c0.1,0,0.2-0.01,0.3-0.04c0.02,0,0.03,0,0.05-0.01C101.78,368.85,101.86,368.83,101.93,368.79z"/>
			<path id="XMLID_2826_" class="st6" d="M101.93,368.79c-0.03,0.01-0.06,0.03-0.09,0.03c-0.07,0.04-0.15,0.06-0.22,0.08
				c-0.05,0.02-0.1,0.04-0.17,0.05c-0.09,0.03-0.2,0.06-0.31,0.07c-0.06,0.02-0.14,0.04-0.21,0.04c-0.1,0.02-0.23,0.04-0.34,0.05
				c-0.93,0.1-1.9-0.04-2.59-0.45c-1.18-0.68-2.11-2.39-2.11-3.82l-0.01-181.68l4.24,2.45v181.67c0,1.02,0.51,1.61,1.25,1.61
				c0.1,0,0.2-0.01,0.3-0.04c0.02,0,0.03,0,0.05-0.01C101.78,368.85,101.86,368.83,101.93,368.79z"/>
			<polygon id="XMLID_2360_" class="st5" points="100.11,185.62 95.87,183.17 95.87,223.52 100.11,225.99 			"/>
			<polygon id="XMLID_2359_" class="st7" points="100.11,185.62 95.87,183.17 95.87,223.52 100.11,225.99 			"/>
			<path id="XMLID_4258_" class="st8" d="M100.76,156.68c-0.41,0.7-0.66,1.5-0.66,2.22v26.72l-4.24-2.45v-26.71
				c0-0.09,0-0.18,0.01-0.27c0.02-0.19,0.05-0.38,0.09-0.56c0.11-0.47,0.31-0.96,0.56-1.4L100.76,156.68z"/>
			<path id="XMLID_4257_" class="st2" d="M349.78,14.75v12.05L170.07,130.56c-1.24,0.72-2.25,0.14-2.25-1.3v-4.56
				c0-1.44-1.01-2.02-2.26-1.3l-54.73,31.6c-1.25,0.72-2.26,2.47-2.26,3.91v4.56c0,1.44-1.01,3.19-2.25,3.91l-6.21,3.58V158.9
				c0-1.44,1.01-3.19,2.25-3.91L347.53,13.45C348.77,12.73,349.78,13.31,349.78,14.75z"/>
			<path id="XMLID_4256_" class="st5" d="M349.79,223.15c0,1.44-1.01,3.19-2.26,3.91L102.36,368.6c-1.24,0.72-2.25,0.14-2.25-1.3
				V170.95l6.21-3.58c1.24-0.72,3.26-11.66,4.51-12.38l53.81-31.07c1.25-0.72,4.19,7.36,5.43,6.64L349.78,26.81v14.67L349.79,223.15
				z"/>
			<path id="XMLID_2824_" class="st9" d="M349.79,223.15c0,1.44-1.01,3.19-2.26,3.91L102.36,368.6c-1.24,0.72-2.25,0.14-2.25-1.3
				V170.95l6.21-3.58c1.24-0.72,3.26-11.66,4.51-12.38l53.81-31.07c1.25-0.72,4.19,7.36,5.43,6.64L349.78,26.81v14.67L349.79,223.15
				z"/>
			<g id="XMLID_3171_" class="st10">
				<path class="st5" d="M348.78,28.54v12.94l0.01,181.67c0,1.08-0.82,2.5-1.76,3.04L101.86,367.73c-0.27,0.16-0.44,0.17-0.5,0.17
					c-0.24,0-0.25-0.51-0.25-0.61V171.53l5.71-3.3c0.89-0.51,1.45-2.26,2.71-6.76c0.57-2.02,1.42-5.06,1.88-5.66L164.77,125
					c0.46,0.52,1.24,1.88,1.72,2.74c1.44,2.54,2.25,3.86,3.41,3.86c0.23,0,0.47-0.06,0.67-0.18L348.78,28.54 M349.78,26.81
					L170.07,130.56c-0.05,0.03-0.11,0.05-0.17,0.05c-1.26,0-3.82-6.73-5.09-6.73c-0.06,0-0.12,0.01-0.17,0.05l-53.81,31.07
					c-1.25,0.72-3.27,11.66-4.51,12.38l-6.21,3.58v196.34c0,1.02,0.51,1.61,1.25,1.61c0.3,0,0.64-0.1,1-0.31l245.17-141.54
					c1.25-0.72,2.26-2.47,2.26-3.91l-0.01-181.67V26.81L349.78,26.81z"/>
			</g>
			<polygon id="XMLID_2357_" class="st5" points="100.11,185.62 100.11,225.99 349.78,81.86 349.78,41.48 			"/>
			<path id="XMLID_4249_" class="st11" d="M349.78,26.81v14.67L100.11,185.62v-14.67l4.64-2.69c1.24-0.72,1.66-1.81,2.25-3.91
				l1.57-5.46c0.5-1.9,1.01-3.19,2.26-3.91l53.81-31.07c1.25-0.72,2.23-0.8,3.18,0.77l1.93,3.5c0.71,1.22,1.06,1.94,2.3,1.22
				L349.78,26.81z"/>
			<g id="XMLID_4245_">
				<path id="XMLID_4248_" class="st5" d="M339.2,22.31c1.57-0.91,2.84-0.17,2.84,1.64s-1.27,4.01-2.84,4.92
					c-1.57,0.91-2.84,0.17-2.84-1.64C336.37,25.42,337.64,23.22,339.2,22.31z"/>
				<path id="XMLID_4247_" class="st5" d="M328.99,28.2c1.57-0.91,2.84-0.17,2.84,1.64c0,1.81-1.27,4.01-2.84,4.92
					c-1.57,0.9-2.84,0.17-2.84-1.64C326.15,31.31,327.42,29.11,328.99,28.2z"/>
				<path id="XMLID_4246_" class="st5" d="M318.77,34.09c1.57-0.91,2.84-0.17,2.84,1.64c0,1.81-1.27,4.01-2.84,4.92
					c-1.57,0.91-2.84,0.17-2.84-1.64C315.93,37.2,317.2,35,318.77,34.09z"/>
			</g>
			<path id="XMLID_4244_" class="st12" d="M110.45,172.01l-3.54,2.04l1.35-2.6c0.12-0.23,0.13-0.51,0.03-0.63
				c-0.1-0.12-0.28-0.04-0.4,0.19l-1.92,3.7c0,0,0,0.01-0.01,0.01c-0.02,0.04-0.04,0.09-0.05,0.14c0,0.02-0.01,0.03-0.02,0.04
				c-0.02,0.06-0.02,0.13-0.02,0.19c0,0.06,0.01,0.12,0.02,0.16c0,0.01,0.01,0.02,0.02,0.03c0.01,0.03,0.03,0.06,0.05,0.08
				c0,0,0,0.01,0.01,0.01l1.92,1.48c0.05,0.04,0.12,0.04,0.19,0c0.08-0.05,0.16-0.14,0.21-0.27c0.1-0.24,0.09-0.51-0.03-0.6
				l-1.35-1.04l3.54-2.04c0.16-0.09,0.28-0.36,0.28-0.6C110.74,172.04,110.61,171.92,110.45,172.01z"/>
			<path id="XMLID_4223_" class="st12" d="M113.41,170.3l3.54-2.04l-1.35-1.04c-0.12-0.09-0.13-0.36-0.03-0.6
				c0.1-0.24,0.28-0.36,0.4-0.27l1.92,1.48c0,0,0,0.01,0.01,0.01c0.02,0.02,0.04,0.05,0.05,0.08c0,0.01,0.01,0.02,0.02,0.03
				c0.02,0.05,0.02,0.1,0.02,0.16c0,0.06-0.01,0.13-0.02,0.19c0,0.02-0.01,0.03-0.02,0.04c-0.01,0.05-0.03,0.09-0.05,0.14
				c0,0,0,0.01-0.01,0.01l-1.92,3.7c-0.05,0.1-0.12,0.18-0.19,0.22c-0.08,0.05-0.16,0.04-0.21-0.03c-0.1-0.12-0.09-0.41,0.03-0.63
				l1.35-2.6l-3.54,2.04c-0.16,0.09-0.28-0.03-0.28-0.27C113.13,170.66,113.25,170.39,113.41,170.3z"/>
			<path id="XMLID_4222_" class="st12" d="M125.03,160.1c-0.02-0.21-0.21-0.19-0.3,0.05l-0.49,1.19c-0.83-0.09-1.83,0.72-2.51,2.15
				c-0.88,1.86-0.88,4.05,0,4.9c0.44,0.42,1.01,0.43,1.59,0.09c0.58-0.33,1.15-1,1.59-1.93c0.11-0.24,0.11-0.51,0-0.62
				c-0.11-0.11-0.29,0-0.4,0.23c-0.65,1.38-1.72,2-2.38,1.37c-0.65-0.63-0.65-2.27,0-3.66c0.47-0.99,1.14-1.57,1.72-1.61l-0.37,0.89
				c-0.09,0.23-0.01,0.45,0.14,0.35l1.44-0.94c0.1-0.07,0.18-0.25,0.16-0.4L125.03,160.1z"/>
			<path id="XMLID_4221_" class="st12" d="M163.09,130.62l1.29-2.73c0.15-0.32,0.15-0.7,0-0.85c-0.15-0.15-0.4,0-0.55,0.32
				l-1.29,2.73l-1.29-1.24c-0.15-0.15-0.4,0-0.55,0.32c-0.15,0.32-0.15,0.7,0,0.85l1.29,1.24l-1.29,2.73c-0.15,0.32-0.15,0.7,0,0.85
				c0.08,0.07,0.18,0.07,0.28,0.02c0.1-0.06,0.2-0.17,0.28-0.34l1.29-2.73l1.29,1.24c0.08,0.07,0.18,0.07,0.28,0.02
				c0.1-0.06,0.2-0.17,0.28-0.34c0.15-0.32,0.15-0.7,0-0.85L163.09,130.62z"/>
			<path id="XMLID_4220_" class="st3" d="M129.73,163.46v-4.56c0-1.44,1.01-3.19,2.26-3.91L334.83,37.94
				c1.25-0.72,2.26-0.14,2.26,1.3l0,4.56c0,1.44-1.01,3.19-2.26,3.91L131.98,164.77C130.74,165.49,129.73,164.9,129.73,163.46z"/>
			<g id="XMLID_4216_">
				<path id="XMLID_4217_" class="st1" d="M331.76,47.97c-0.06,0-0.12-0.01-0.17-0.03c-0.16-0.07-0.32-0.26-0.28-0.58l0.23-1.89
					c0-0.01,0-0.01,0-0.02l-0.91-0.66c-0.13-0.09-0.2-0.24-0.2-0.43c0-0.27,0.13-0.56,0.34-0.71l1.32-1.02
					c0.03-0.02,0.07-0.08,0.09-0.15l0.59-1.94c0.1-0.32,0.33-0.55,0.58-0.56c0.18-0.02,0.35,0.09,0.43,0.26v0l0.53,1.14l1.2-0.46
					c0.18-0.07,0.37-0.03,0.49,0.11c0.17,0.19,0.17,0.51,0.02,0.81l-0.96,1.8c-0.04,0.07-0.05,0.13-0.04,0.17l0.23,1.63
					c0.04,0.29-0.1,0.57-0.26,0.73c-0.13,0.13-0.29,0.2-0.45,0.18l-1.18-0.15l-1.15,1.54C332.07,47.9,331.91,47.97,331.76,47.97z
					 M331.02,44.33l0.91,0.66c0.15,0.11,0.22,0.31,0.19,0.54l-0.19,1.56l0.99-1.26c0.14-0.18,0.32-0.27,0.51-0.25l1.19,0.15
					c-0.02-0.02,0.05-0.16,0.04-0.24l-0.23-1.63c-0.02-0.17,0.02-0.36,0.11-0.53l0.96-1.8l-1.1,0.42c-0.23,0.09-0.46-0.01-0.57-0.23
					l-0.49-1.05c0,0.01,0,0.01-0.01,0.02l-0.59,1.94c-0.06,0.18-0.16,0.35-0.3,0.45l-1.32,1.02
					C331.07,44.16,331.03,44.27,331.02,44.33z"/>
			</g>
			<g id="XMLID_4071_" class="st13">
				<g id="XMLID_4207_">
					<path id="XMLID_4214_" class="st4" d="M339.75,37.38c-0.27,0-0.53-0.14-0.68-0.39c-0.22-0.37-0.09-0.85,0.29-1.07l6.35-3.67
						c0.38-0.22,0.85-0.09,1.07,0.29c0.22,0.37,0.09,0.85-0.29,1.07l-6.35,3.67C340.02,37.35,339.88,37.38,339.75,37.38z"/>
				</g>
				<g id="XMLID_4201_">
					<path id="XMLID_4203_" class="st4" d="M339.75,41.05c-0.27,0-0.53-0.14-0.68-0.39c-0.22-0.37-0.09-0.85,0.29-1.07l6.35-3.67
						c0.38-0.22,0.85-0.09,1.07,0.29c0.22,0.37,0.09,0.85-0.29,1.07l-6.35,3.67C340.02,41.01,339.88,41.05,339.75,41.05z"/>
				</g>
				<g id="XMLID_4072_">
					<path id="XMLID_4073_" class="st4" d="M339.75,44.71c-0.27,0-0.53-0.14-0.68-0.39c-0.22-0.37-0.09-0.85,0.29-1.07l6.35-3.67
						c0.38-0.22,0.85-0.09,1.07,0.29c0.22,0.37,0.09,0.85-0.29,1.07l-6.35,3.67C340.02,44.68,339.88,44.71,339.75,44.71z"/>
				</g>
			</g>
			<polygon id="XMLID_4070_" class="st1" points="100.11,170.95 100.11,185.62 95.87,183.17 95.87,168.51 			"/>
		</g>
		<text id="XMLID_3803_" transform="matrix(0.6495 -0.375 0 1 233.8405 134.6673)" class="st14 st15 st16">Bhojaji Namkeen</text>
		<g id="XMLID_3542_">
			<polygon id="XMLID_3210_" class="st17" points="110.94,235.51 179.99,195.64 179.99,308.21 110.74,347.97 			"/>
			<g id="XMLID_3281_">
				<path id="XMLID_3211_" class="st18" d="M195.21,188.93l83.3-48.09c1.67-0.97,3.03-0.23,3.03,1.64c0,1.87-1.35,4.18-3.02,5.15
					l-83.32,48.64c-1.67,0.97-3.02,0.2-3.02-1.74l0-0.35C192.18,192.25,193.54,189.9,195.21,188.93z"/>
				<path id="XMLID_3279_" class="st17" d="M194.34,203.5l137.84-79.58c1.2-0.69,2.16-0.2,2.16,1.1c0,1.3-0.97,2.9-2.17,3.6
					l-137.84,79.58c-1.2,0.69-2.17,0.2-2.17-1.1C192.18,205.8,193.15,204.19,194.34,203.5z"/>
				<path id="XMLID_3283_" class="st17" d="M194.34,212.92l137.84-79.58c1.2-0.69,2.16-0.2,2.16,1.1c0,1.3-0.97,2.91-2.17,3.6
					l-137.84,79.58c-1.2,0.69-2.17,0.2-2.17-1.1S193.15,213.61,194.34,212.92z"/>
				<path id="XMLID_3291_" class="st17" d="M194.34,222.33l137.84-79.58c1.2-0.69,2.16-0.2,2.16,1.1c0,1.3-0.97,2.9-2.17,3.6
					l-137.84,79.58c-1.2,0.69-2.17,0.2-2.17-1.1C192.18,224.63,193.15,223.03,194.34,222.33z"/>
				<path id="XMLID_3292_" class="st17" d="M194.34,231.75l137.84-79.58c1.2-0.69,2.16-0.2,2.16,1.1c0,1.3-0.97,2.9-2.17,3.6
					l-137.84,79.58c-1.2,0.69-2.17,0.2-2.17-1.1C192.18,234.05,193.15,232.44,194.34,231.75z"/>
				<path id="XMLID_3293_" class="st17" d="M194.34,241.17l96.17-55.97c1.2-0.69,2.16-0.2,2.16,1.1c0,1.3-0.97,2.9-2.17,3.6
					l-96.17,55.97c-1.2,0.69-2.17,0.2-2.17-1.1S193.15,241.86,194.34,241.17z"/>
				<path id="XMLID_3543_" class="st17" d="M194.34,260l137.84-79.58c1.2-0.69,2.16-0.2,2.16,1.1c0,1.3-0.97,2.9-2.17,3.6
					l-137.84,79.58c-1.2,0.69-2.17,0.2-2.17-1.1S193.15,260.69,194.34,260z"/>
				<path id="XMLID_3544_" class="st17" d="M194.34,269.42l137.84-79.58c1.2-0.69,2.16-0.2,2.16,1.1c0,1.3-0.97,2.91-2.17,3.6
					l-137.84,79.58c-1.2,0.69-2.17,0.2-2.17-1.1S193.15,270.11,194.34,269.42z"/>
				<path id="XMLID_3553_" class="st17" d="M194.34,278.83l137.84-79.58c1.2-0.69,2.16-0.2,2.16,1.1c0,1.3-0.97,2.9-2.17,3.6
					l-137.84,79.58c-1.2,0.69-2.17,0.2-2.17-1.1C192.18,281.13,193.15,279.53,194.34,278.83z"/>
				<path id="XMLID_3554_" class="st17" d="M194.34,288.25l50.64-29.56c1.2-0.69,2.16-0.2,2.16,1.1c0,1.3-0.97,2.9-2.17,3.6
					l-50.64,29.56c-1.2,0.69-2.17,0.2-2.17-1.1S193.15,288.94,194.34,288.25z"/>
			</g>
		</g>
	</g>
</g>
<g id="Character_3">
	<g id="XMLID_3461_">
		<g id="XMLID_3988_">
			<path id="XMLID_3991_" class="st19" d="M378.54,234.2c7.33-23.78,14.46-39.45,7.19-44.3l0,0c-6.77,1.25-9.8,4.6-11.24,13.52
				c-1.51,9.36-4.64,22.39-6.47,29.92c-1.46,6.01-4.31,13.56-6.75,18.16c-0.43,0.81-1.16,1.43-2,1.76
				c-2.26,0.88-3.34,2.04-5.18,3.35c-1.44,1.03-2.5,1.15-2.44,1.58c0.08,0.56,0.74,1.56,2.26,1.39c0.77-0.08,1.83-0.48,3.15-1.01
				c0,0-1.33,3.58-3.95,5.76c-3.54,2.96-3.01,5.93,2.69,6.27c2.04,0.12,6.78-1.74,11.16-9.21c1.26-2.15,2.73-5.68,3.91-8.61
				C373.94,245.14,377.07,238.96,378.54,234.2z"/>
			<path id="XMLID_3990_" class="st14" d="M387.03,189.62c0,0-5.64-0.29-9.05,3.47c-3.42,3.77-7.41,26.29-7.41,26.29
				s3.74,5.14,13.61,3.04L387.03,189.62z"/>
			<path id="XMLID_3989_" class="st14" d="M387.03,189.62c0,0-5.64-0.29-9.05,3.47c-3.42,3.77-7.41,26.29-7.41,26.29
				s3.74,5.14,13.61,3.04L387.03,189.62z"/>
		</g>
		<g id="XMLID_3945_">
			<rect id="XMLID_3987_" x="405.84" y="349.38" class="st19" width="7.57" height="13.5"/>
			<polygon id="XMLID_3986_" class="st19" points="387.16,348.66 379.59,348.93 379.21,334.65 387.16,334.38 			"/>
			<path id="XMLID_3985_" class="st14" d="M414.48,232.5c0,7.53-1.11,68.13-1.11,68.13c0.18,2.17,2.13,6.16,1.7,14.48
				c-0.57,11.31-1.34,41.02-1.34,41.02s-3.68,2.24-8.43,0.17c0,0-7.16-41.15-8.52-52.35c-1.18-9.78-3.19-42.7-3.19-42.7l-4.1,38.28
				c0,0,1.4,5.83,0.94,12.53c-0.35,5.18-2.79,32.17-2.79,32.17s-3.56,2.52-8.74,0.7c0,0-4.31-40.65-4.39-45.4
				c-0.1-5.42,2.52-67.12,2.52-67.12L414.48,232.5z"/>
			<path id="XMLID_3984_" class="st8" d="M405.84,358.99v-1.13c-0.72,0.33-2.41,7.02-5.41,9.87c-2.39,2.27-5.65,4.89-6.47,7.42
				c-0.86,2.63,4.54,4.08,6.77,3.67c2.59-0.48,7.09-2.38,8.21-4.14c1.13-1.76,1.66-4.36,2.57-5.65c0.92-1.29,3.03-2.73,3.53-4.23
				c0.27-0.82-0.05-2.62-0.43-4.14c-0.35-1.39-0.73-2.93-1.19-2.8c0,0.17,0,0.86,0,0.86c-0.55,0.63-2.07,1.26-3.79,1.33
				C408.52,360.1,405.83,359.87,405.84,358.99z"/>
			<path id="XMLID_3983_" class="st8" d="M379.51,346.5c-0.39,0.01-0.71,0.59-1.58,1.57c-1.05,1.18-2.76,2.46-4.45,3.34
				c-2.84,1.48-8.35,3.75-10.84,4.92c-1.56,0.73-1.49,2.69,0.13,3.81c1.61,1.12,5.5,1.92,10.17,0.83c2.54-0.59,5.86-3.04,7.95-2.91
				c2.1,0.13,6.02,0.1,7.57-1.01c1.55-1.11,0.93-3.48,0.49-5.52c-0.48-2.23-1.07-5.69-1.78-5.54v0.77
				c-0.91,1.44-5.61,2.02-7.61,0.96L379.51,346.5z"/>
			<path id="XMLID_3980_" class="st14" d="M393.59,261.26c0,0-6.05-1.78-10.54-6.3c0,0,2.03,3.97,8.08,7.66l-1.29,34.18
				L393.59,261.26z"/>
		</g>
		<g id="XMLID_3920_">
			<path id="XMLID_3931_" class="st20" d="M410.54,191.42c0,0,5.93,0.54,5.5,11.83l-1.31,17.98l0.04,26.98
				c-5.57,6.31-30.25,5.85-38.7-0.51c0,0,0.96-31.93,1.53-44.22c0.41-8.74,2.42-13.13,11-14.1l10.56,0.46L410.54,191.42z"/>
			<polygon id="XMLID_3921_" class="st21" points="393.71,197.34 392.35,206.82 389.19,206.76 392.76,207.33 			"/>
		</g>
		<g id="XMLID_3860_">
			<path id="XMLID_3880_" class="st8" d="M401.61,165.99c0,6.48-5.05,11.74-11.27,11.74s-10.99-5.26-11.27-11.74
				c-0.5-11.47,5.05-11.74,11.27-11.74S401.61,159.5,401.61,165.99z"/>
			<g id="XMLID_3871_">
				<path id="XMLID_3879_" class="st8" d="M408.03,171.81c0,0-1.73,8.46-2.42,9.85c-0.69,1.39-2.13,1.79-2.13,1.79l0.12-5.95
					L408.03,171.81z"/>
				<path id="XMLID_3878_" class="st8" d="M405.86,159.69c0,0,1.24-0.31,2.56,1.75c1.13,1.76,1.39,5.73-0.39,10.37l-3.26,0.39
					L405.86,159.69z"/>
				<path id="XMLID_3877_" class="st19" d="M403.8,172.2c0.65,0.41,1.58-0.9,2.39-1.78c0.81-0.88,3.43-2.08,4.75,0.8
					c1.34,2.93-1.16,6.81-3.23,7.49c-3.57,1.17-4.1-1.22-4.1-1.22l-0.27,13.4c-4.74,7.32-15.46,7.06-11.6-0.35l0.01-4.08
					c0,0-3.23,0.51-4.81,0.26c-2.62-0.42-4.27-2.58-5.07-5.54c-1.28-4.75-1.76-8.59-0.68-17.93c1.19-10.24,12.62-10.35,18.8-6.3
					C406.15,161,403.8,172.2,403.8,172.2z"/>
				<path id="XMLID_3876_" class="st14" d="M403.39,187.89c0,0-1.67,3.6-4.64,5.81c-2.73,2.03-5.61,2.38-5.61,2.38
					s2.78,1.84,3.96,4.45c1.18,2.61,9.51-4.57,9.44-9.65c0,0-1.31-5.11-3.1-5.44L403.39,187.89z"/>
				<path id="XMLID_3875_" class="st14" d="M393.15,196.08c0,0-2.57-1.28-1.42-5.55l0.01-4.08l-1.13,0.15
					c-0.88,0.79-2.26,2.65-2.71,4.69c-0.26,1.17-0.89,7.08,0.24,8.26C389.17,200.63,390.84,196.4,393.15,196.08z"/>
				<path id="XMLID_3874_" class="st8" d="M399.42,161.04c0.3-0.04,0.61-0.07,0.88,0.06c0.97,0.44,1.18,3.45,1.35,4.32
					c0.57,2.93,1.05,7.9,2.15,7.93c0.33,0.01,1.58-2.15,2.39-2.92c1.13-1.07-0.33-10.73-0.33-10.73s1.08-2.4-1.09-4.89
					c-2.03-2.32-5.21-2.84-8.13-3c-3.43-0.19-6.91,0.07-10.29-0.68c-1.07-0.24-2.13-0.58-3.22-0.69c-0.1-0.01-0.21-0.02-0.29,0.05
					c-0.11,0.09-0.09,0.26-0.07,0.4c0.21,1.01,0.57,1.99,1.07,2.9c-2.01-0.16-4-0.55-5.93-1.17c-0.11-0.04-0.23-0.07-0.34-0.04
					c-0.23,0.07-0.27,0.37-0.25,0.61c0.14,2.43,1.29,6.08,3.26,7.51c1.54,1.12,3.95,1.8,5.85,1.85
					C391.74,162.68,395.03,161.56,399.42,161.04z"/>
				<path id="XMLID_3873_" class="st8" d="M405.86,160.2l3.95-2.21c-0.56-1.18-1.9-1.64-2.99-1.03
					C405.73,157.57,405.3,159.02,405.86,160.2z"/>
				<path id="XMLID_3872_" class="st22" d="M391.74,186.46c0,0,5.86-1.23,7.9-2.36c1.37-0.76,2.5-2.07,2.83-2.92
					c0,0-0.38,1.81-1.61,3.44c-1.5,1.99-9.12,3.46-9.12,3.46L391.74,186.46z"/>
			</g>
			<g id="XMLID_3861_">
				<path id="XMLID_3870_" class="st8" d="M393.15,170.68c0,0.7,0.53,1.27,1.17,1.27c0.65,0,1.17-0.57,1.17-1.27
					c0-0.7-0.53-1.27-1.17-1.27C393.67,169.4,393.15,169.97,393.15,170.68z"/>
				<path id="XMLID_3869_" class="st8" d="M395.03,165.62l2.51,1.44c0.37-0.75,0.11-1.68-0.58-2.08
					C396.26,164.58,395.4,164.86,395.03,165.62z"/>
				<path id="XMLID_3868_" class="st22" d="M392.27,179.12l-2.68,1.05c0.27,0.8,1.08,1.21,1.82,0.92
					C392.15,180.8,392.53,179.92,392.27,179.12z"/>
				<path id="XMLID_3864_" class="st8" d="M382.38,166.69l2.29-1.84c-0.47-0.68-1.36-0.82-1.99-0.32
					C382.05,165.04,381.91,166.01,382.38,166.69z"/>
				<path id="XMLID_3863_" class="st8" d="M383.39,170.33c0,0.7,0.53,1.27,1.17,1.27c0.65,0,1.17-0.57,1.17-1.27
					c0-0.7-0.53-1.27-1.17-1.27C383.91,169.06,383.39,169.63,383.39,170.33z"/>
				<polygon id="XMLID_3862_" class="st22" points="389.67,169.35 389.53,176.76 385.32,175.79 				"/>
			</g>
		</g>
		<g id="XMLID_3463_">
			<path id="XMLID_3856_" class="st14" d="M422.06,176.8c1.69-2.24,5.11,2.73,6.69,6.16c1.58,3.43,1.6,5.37,0.31,6.73
				c-1.29,1.36-3.75,0.54-6.2-2.71C420.4,183.73,421.09,178.45,422.06,176.8z"/>
			<path id="XMLID_3854_" class="st13" d="M422.06,176.8c1.69-2.24,5.11,2.73,6.69,6.16c1.58,3.43,1.6,5.37,0.31,6.73
				c-1.29,1.36-3.75,0.54-6.2-2.71C420.4,183.73,421.09,178.45,422.06,176.8z"/>
			<g id="XMLID_3852_">
				<path id="XMLID_3853_" class="st19" d="M433.95,177.46c-5.96,14.04-14.35,21.89-18.1,30.9c-4.92-0.33-8.74-12.2-5.08-17.27
					c0,0,14.38-15.57,15.69-21.69c1.16-5.43,2.71-14.39,2.57-18.98c-0.02-0.77-0.36-1.47-0.88-2.04c-1.51-1.62-1.51-2.93-2.48-4.72
					c-0.76-1.4-1.58-1.92-1.35-2.24c0.3-0.4,1.26-0.93,2.45-0.18c0.6,0.38,0.99,0.82,1.86,1.78c0,0,0.39-2.47-0.85-5.26
					c-1.67-3.78-1.27-5.7,3.83-4.36c3.19,0.84,5.2,3.5,5.68,11.18c0.14,2.21,0.32,6.79,0.06,9.59c-0.55,5.91-0.91,12.07-1.64,16.96
					C435.38,173.31,434.81,175.44,433.95,177.46z"/>
			</g>
			<path id="XMLID_3683_" class="st14" d="M409.32,191.26l12.69-14.5c0,0-1.51,3.54,1.79,8.68c3.3,5.14,5.26,4.26,5.26,4.26
				s-7.49,10.93-9.5,14.59c-2.01,3.66-4.09,6.74-4.09,6.74s-0.5,1.29-2.37,1.29C411.24,212.32,406.31,204.06,409.32,191.26z"/>
			<path id="XMLID_3464_" class="st14" d="M409.32,191.26l12.69-14.5c0,0-1.51,3.54,1.79,8.68c3.3,5.14,5.26,4.26,5.26,4.26
				s-7.49,10.93-9.5,14.59c-2.01,3.66-4.09,6.74-4.09,6.74s-0.5,1.29-2.37,1.29C411.24,212.32,406.31,204.06,409.32,191.26z"/>
		</g>
	</g>
</g>
<g id="Character_2">
	<g id="XMLID_3992_">
		<g id="XMLID_4622_">
			<g id="XMLID_4625_">
				<polygon id="XMLID_4626_" class="st14" points="306.41,223.85 312.39,231.8 305.97,239.15 297.7,229.48 				"/>
			</g>
			<g id="XMLID_4623_">
				<path id="XMLID_4624_" class="st14" d="M286.87,205.77c5.21,0.24,7.69,1.05,10.42,4.26c2.66,3.14,16.37,22.94,16.37,22.94
					s-2.41,6.76-7.69,6.18l-9.59-9.89L286.87,205.77z"/>
			</g>
		</g>
		<g id="XMLID_4609_">
			<g id="XMLID_4617_">
				<path id="XMLID_4619_" class="st8" d="M261.31,370.89c-0.17,1.26-0.53,2.72-0.6,6.27c-0.07,3.81-0.77,5.16-0.86,8.28
					c-0.11,3.57,0.51,4.91,1.96,6.91c1.45,2.01,5.25,3.83,6.86,0.44c1.63-3.43,1.4-5.61,0.89-9.12c-0.53-3.62-0.6-5.62-0.91-8.38
					c-0.27-2.43-0.6-4.28-0.6-4.28L261.31,370.89z"/>
				<path id="XMLID_4618_" class="st23" d="M272.12,340.95l-12.54-0.23c0.19,8.37,1.52,22.31,1.73,30.17
					c0.04,1.48-0.04,11.49,0.52,14.53c0.84,4.57,6.26,3.95,6.55,1.22c0.29-2.74-0.35-14.43-0.33-15.63
					c-0.05-5.04,2.31-18.19,3.55-27.23C271.66,343.34,272.06,341.38,272.12,340.95z"/>
			</g>
			<g id="XMLID_4612_">
				<path id="XMLID_4614_" class="st8" d="M290.55,364.38c0,0-0.65,0.04-0.75,0.57c-0.12,0.63-0.15,1.62-0.41,2.65
					c-0.36,1.43-0.66,3.8-0.45,4.97c0.22,1.17,2.89,2.91,4.71,3.22c1.83,0.31,4.4,2.11,5.83,3.46c1.75,1.65,5.53,3.21,8.11,3.19
					c3.05-0.02,5.17-1.01,6.18-2.65c1.05-1.7-0.91-1.83-4.4-4.09c-0.79-0.51-1.69-1.09-2.7-1.75c-5.52-3.6-7.54-5.54-9.1-9.14
					L290.55,364.38z"/>
				<path id="XMLID_4613_" class="st23" d="M297.62,362.42c-0.09-2.59,1.24-21.69,1.24-21.69l-10.79,1.21
					c2.55,15.23,2.76,20.41,2.47,22.63l0,0c-0.02,0.06-0.07,0.27-0.07,0.64c0.01,2.96,3.35,4.55,5.95,6.53
					c1.03,0.78,3.67,3.18,6.77,4.23c2,0.68,5.71,0.94,6.19-0.28c-3.17-2.42-7.48-5.58-10-8.35
					C298.17,366.02,297.71,365.01,297.62,362.42z"/>
			</g>
			<path id="XMLID_4611_" class="st5" d="M262.48,254.36c-5.89,12.86,0.21,58.14,0.21,58.14c-0.18,2.09-2.56,6.19-3.45,15.37
				c-1.05,10.85,1.94,39.89,1.94,39.89s2.87,2.14,7.02,0.15c0,0,7.59-42.67,8.96-53.46c1.19-9.41,3.47-30.11,3.47-30.11l6.48,30.06
				c0,0-1.66,5.27-2.05,9.29c-0.61,6.35,5.56,38.19,5.56,38.19s2.89,1.53,7-0.14c0,0,2.74-41.14,3.31-48.78
				c0.96-12.84-2.45-52.89-4.8-60.49L262.48,254.36z"/>
			<path id="XMLID_3191_" class="st14" d="M262.48,254.36c-5.89,12.86,0.21,58.14,0.21,58.14c-0.18,2.09-2.56,6.19-3.45,15.37
				c-1.05,10.85,1.94,39.89,1.94,39.89s2.87,2.14,7.02,0.15c0,0,7.59-42.67,8.96-53.46c1.19-9.41,3.47-30.11,3.47-30.11l6.48,30.06
				c0,0-1.66,5.27-2.05,9.29c-0.61,6.35,5.56,38.19,5.56,38.19s2.89,1.53,7-0.14c0,0,2.74-41.14,3.31-48.78
				c0.96-12.84-2.45-52.89-4.8-60.49L262.48,254.36z"/>
			<path id="XMLID_4610_" class="st14" d="M280.63,284.34l1.91-11.94c0,0,8.08-1.67,11.75-5.12c0,0-3.85,4.79-9.56,6.35l-2.15,9.19
				l3.75,27.84L280.63,284.34z"/>
		</g>
		<g id="XMLID_4360_">
			<g id="XMLID_4362_">
				<path id="XMLID_4377_" class="st5" d="M265.5,214.43l8.01,2.09v-16.93l0,0c-4.42-1.15-8.01,1.4-8.01,5.7V214.43z"/>
				<path id="XMLID_6_" class="st8" d="M265.5,214.43l8.01,2.09v-16.93l0,0c-4.42-1.15-8.01,1.4-8.01,5.7V214.43z"/>
				<path id="XMLID_4608_" class="st5" d="M281.34,201.99l-2.87-0.07c-8.76-0.2-15.7-7.76-15.51-16.88l0,0
					c-0.05-9.94,7.69-18.04,17.24-18.09l0,0c9.54-0.05,17.32,7.96,17.37,17.9l-0.02,1.03C297.33,194.99,290.08,202.19,281.34,201.99
					z"/>
				<path id="XMLID_5_" class="st8" d="M281.34,201.99l-2.87-0.07c-8.76-0.2-15.7-7.76-15.51-16.88l0,0
					c-0.05-9.94,7.69-18.04,17.24-18.09l0,0c9.54-0.05,17.32,7.96,17.37,17.9l-0.02,1.03C297.33,194.99,290.08,202.19,281.34,201.99
					z"/>
				<path id="XMLID_2865_" class="st5" d="M267.93,171.12c-0.32-1.24-1.56-1.94-2.77-1.56l0.77,2.96c-0.16-0.2-0.35-0.37-0.58-0.5
					c-1.08-0.63-2.42-0.2-3.01,0.96l3.9,2.3c0.2-0.41,0.28-0.85,0.26-1.28C267.6,173.54,268.24,172.3,267.93,171.12z"/>
				<path id="XMLID_1_" class="st8" d="M267.93,171.12c-0.32-1.24-1.56-1.94-2.77-1.56l0.77,2.96c-0.16-0.2-0.35-0.37-0.58-0.5
					c-1.08-0.63-2.42-0.2-3.01,0.96l3.9,2.3c0.2-0.41,0.28-0.85,0.26-1.28C267.6,173.54,268.24,172.3,267.93,171.12z"/>
				<g id="XMLID_4372_">
					<path id="XMLID_4374_" class="st20" d="M272.66,206.46c0,0-5.79,0.82-8.01,1.54c3.1,7.6-1.76,19.35-1.76,19.35l4.59,14.13
						c-3.16,6.49-5.78,9.71-6.85,14.99c2.92,5.7,23.53,11.14,36.95,0.75c0,0-0.43-14.43-2.14-22.84c4.4-8.57,3.68-11.09,2.78-14.08
						c-2.09-6.95-6.31-9.63-11.34-14.52l-3.03-0.32L272.66,206.46z"/>
				</g>
				<path id="XMLID_1928_" class="st20" d="M268.01,247.13c2.49-2.55,7.77-3.28,7.77-3.28l-4.84-2.76l-5.43-13.1
					c3.77-7.24,3.26-14.41,3.26-14.41l-3.11-0.75c0.38,6.93-2.76,14.52-2.76,14.52l4.59,14.13c-3.16,6.49-5.78,9.71-6.85,14.99
					c2,3.9,12.29,7.68,22.88,6.35C269.31,261.86,265.61,249.6,268.01,247.13z"/>
				<g id="XMLID_3196_">
					<path id="XMLID_3198_" class="st24" d="M282.35,262.93c0.19-0.02,0.39-0.04,0.58-0.06
						C282.77,262.87,282.58,262.89,282.35,262.93z"/>
				</g>
				<g id="XMLID_4363_">
					<path id="XMLID_4371_" class="st23" d="M291.13,175.83c1.72,1.58,3.87,5.01,3.7,15.04c-0.15,8.5-2.78,10.61-4.1,11.22
						c-1.32,0.61-3.89,0.26-6.38-0.16l-0.03,3.52c0,0,3.28,3.64,3.08,5.98c-0.2,2.34-4.67,3.31-7.9,1.04
						c-3.23-2.27-5.98-6.05-5.98-6.05l-0.03-10.69c0,0-1.46,1.49-3.95-0.76c-2.06-1.86-2.77-5-1.18-6.7
						c1.59-1.7,4.55-1.25,5.69,1.15c0,0,5.68-0.47,10.92-3.21C289.6,183.78,291.46,179.39,291.13,175.83z"/>
					<path id="XMLID_4370_" class="st8" d="M284.34,188.92c0.03,0.61-0.4,1.13-0.96,1.16c-0.57,0.03-1.05-0.44-1.08-1.05
						c-0.03-0.61,0.4-1.13,0.97-1.16C283.83,187.84,284.31,188.31,284.34,188.92z"/>
					<path id="XMLID_4369_" class="st25" d="M284.73,196.04l2.67,0.87c-0.22,0.8-0.99,1.25-1.73,1.01
						C284.93,197.68,284.51,196.84,284.73,196.04z"/>
					<path id="XMLID_4368_" class="st8" d="M293.96,185.09l-2.42-0.83c0.18-0.7,0.87-1.08,1.54-0.86
						C293.74,183.63,294.14,184.39,293.96,185.09z"/>
					<path id="XMLID_4367_" class="st5" d="M274.05,188.42l-0.03,3.59c0.96,0.05,1.74-0.72,1.75-1.72
						C275.78,189.3,275.01,188.46,274.05,188.42z"/>
					<path id="XMLID_7_" class="st8" d="M274.05,188.42l-0.03,3.59c0.96,0.05,1.74-0.72,1.75-1.72
						C275.78,189.3,275.01,188.46,274.05,188.42z"/>
					<path id="XMLID_4366_" class="st8" d="M293.12,188.57c0.03,0.61-0.4,1.13-0.97,1.16c-0.57,0.03-1.05-0.44-1.08-1.05
						c-0.03-0.61,0.4-1.13,0.96-1.16C292.6,187.49,293.09,187.96,293.12,188.57z"/>
					<polygon id="XMLID_4365_" class="st25" points="287.42,187.11 287.4,194.08 290.64,193.01 					"/>
					<path id="XMLID_4364_" class="st25" d="M284.35,201.93c-2.62-0.34-8.03-1.93-8.88-4.15c0,0,0.29,1.4,1.91,2.83
						c1.62,1.43,6.96,3.04,6.96,3.04L284.35,201.93z"/>
				</g>
			</g>
		</g>
		<g id="XMLID_4067_">
			<path id="XMLID_4359_" class="st23" d="M252.35,242.03c0,0,6.42,9.12,7.52,10.31c1.1,1.19,1.85,0.8,3.05,0.26
				c1.19-0.53,3.46-1.21,4.46-1.46c1.96-0.49,2.38,1.32,0.44,2.62c-1.4,0.93-3.01,1.34-2.34,2.11c0.67,0.77,2.75,2.11,4.68,2.87
				c4.74,1.87,4.37,2.81,3.5,4.34c-0.76,1.34-2.97,4.22-11.44,0.81c-3.49-1.4-8.42-5.39-10.74-7.96
				c-3.35-3.71-8.57-10.36-8.57-10.36L252.35,242.03z"/>
			<path id="XMLID_4358_" class="st14" d="M265.89,207.67c-2.32,0.16-6.69,0.71-12.17,9.81c-4.81,7.98-12.25,18.81-13.64,22.68
				c-0.56,1.56,1.62,4.82,4.43,8.15c3.84-0.17,7.33-2.82,9.14-4.94c-0.84-1.94-1.77-3.21-1.77-3.21l11.24-12.82
				c0,0,4.27-3.91,5.16-9.03C269.24,212.82,268.94,208.48,265.89,207.67z"/>
		</g>
		<g id="XMLID_3993_">
			<g id="XMLID_4063_">
				<polygon id="XMLID_4065_" class="st5" points="328.82,224.93 301.11,232.23 293.48,263.58 319.83,255.93 				"/>
				<polygon id="XMLID_4064_" class="st26" points="328.82,224.93 301.11,232.23 293.48,263.58 319.83,255.93 				"/>
			</g>
			<g id="XMLID_4061_" class="st27">
				<path id="XMLID_4062_" d="M316.3,247.13c0.26,0.7,1.96,3.25,5.18,3.1l0.2-0.69L316.3,247.13z"/>
			</g>
			<g id="XMLID_4055_" class="st27">
				<path id="XMLID_4056_" d="M320.47,229.91c0,0,0.1-0.47,0.23-1.06c0.13-0.58-1.5-0.61-3.63-0.06l-4.08,1.06
					c-2.13,0.55-3.96,1.47-4.09,2.06l-0.23,1.06L320.47,229.91z"/>
			</g>
			<g id="XMLID_4000_">
				<path id="XMLID_4001_" class="st2" d="M322.6,225.94c0.08-0.36-0.58-0.46-1.47-0.21l-1.62,0.45c0,0,0.48-2.29-3.11-1.49
					c-3.59,0.8-4.37,3.39-4.37,3.39s-0.77,0.22-1.73,0.49s-1.82,0.78-1.93,1.15l-0.2,0.66l14.28-3.76
					C322.45,226.61,322.52,226.3,322.6,225.94z"/>
			</g>
			<g id="XMLID_3998_">
				<path id="XMLID_3999_" class="st2" d="M320.63,227.06c-1.31,0.32-1.85,0.49-2.05,1.39c-0.22,1.03-0.31,1.78-0.31,1.78
					l-6.32,1.67c0,0,0.31-1.3,0.4-1.81c0.1-0.51-0.12-0.81-1.12-0.55l-0.09-0.4l9.9-2.52L320.63,227.06z"/>
			</g>
			<g id="XMLID_3996_">
				<path id="XMLID_3997_" class="st2" d="M320.85,230.01c0,0,0.1-0.47,0.23-1.06c0.13-0.58-1.5-0.61-3.63-0.06l-4.08,1.06
					c-2.13,0.55-3.96,1.47-4.09,2.06l-0.23,1.06L320.85,230.01z"/>
			</g>
			<g id="XMLID_3994_">
				<path id="XMLID_3995_" class="st23" d="M325.9,234.99c0,0-1.04,3.55-1.27,4.39c-0.24,0.85-3.34,2.36-5.38,2.92
					c-2.04,0.56-4.27,1.22-3.3,4.07c0.89,2.63,4.24,3.23,5.95,3.15c1.71-0.07,4.04-1.71,4.96-4.33c1.17-3.35,0.54-6.94,1.01-8.9
					C328.33,234.34,326.92,233.83,325.9,234.99z"/>
			</g>
		</g>
	</g>
</g>
<g id="Character_1_1_">
	<g id="XMLID_4627_">
		<g id="XMLID_4729_">
			<path id="XMLID_4731_" class="st28" d="M220.93,235.83c-3.8-3.83-5.16-2.34-5.64,1.86c-0.35,3.1-1.27,5.13-1.27,5.13
				c-0.27-1.3-0.38-1.89-0.71-2.53c-0.66-1.28-1.78-1.31-2.26-1.11c-0.37,0.16,0.09,1.05,0.03,2.67c-0.07,2.08-0.75,3.24-0.26,5.45
				c0.18,0.83,0.03,1.69-0.37,2.44c-2.05,3.79-8.59,10.82-13.2,15.87c-4.08-3.68-13.19-11.92-17.56-15.85
				c-5.99-5.4-7.94-7.83-13.73-7.43c0,0,2.24,0.68,4.93,2.95c2.68,2.27,2.04,15.26,2.04,15.26s19.92,14.29,21.97,15.65
				c0.3,0.2,0.61,0.38,0.91,0.54c2,1.06,4.48,0.56,5.97-1.15c4.25-4.86,10.45-14.43,14.03-19.4c1.68-2.33,3.31-5.52,4.33-7.54
				C223.7,241.61,223.31,238.23,220.93,235.83z"/>
			<path id="XMLID_4730_" class="st14" d="M166.55,241.97c0,0,4.04-1.06,8.01,1.96c3.42,2.59,17.96,15.97,17.96,15.97
				s0.4,7.08-7,11.31l-17.88-12.61L166.55,241.97z"/>
			<path id="XMLID_2372_" class="st29" d="M166.55,241.97c0,0,4.04-1.06,8.01,1.96c3.42,2.59,17.96,15.97,17.96,15.97
				s0.4,7.08-7,11.31l-17.88-12.61L166.55,241.97z"/>
		</g>
		<g id="XMLID_4680_">
			<rect id="XMLID_4728_" x="141.73" y="401.96" class="st28" width="7.57" height="13.5"/>
			<polygon id="XMLID_4727_" class="st28" points="167.98,401.24 175.55,401.51 175.93,387.22 167.98,386.95 			"/>
			<path id="XMLID_4726_" class="st14" d="M140.66,285.07c0,7.53,1.11,68.13,1.11,68.13c-0.18,2.17-2.13,6.16-1.7,14.48
				c0.57,11.31,1.34,41.02,1.34,41.02s3.68,2.24,8.43,0.17c0,0,7.16-41.15,8.52-52.35c1.18-9.78,3.19-42.7,3.19-42.7l4.1,38.28
				c0,0-1.4,5.83-0.94,12.53c0.35,5.18,2.79,32.17,2.79,32.17s3.56,2.52,8.74,0.7c0,0,4.31-40.65,4.39-45.4
				c0.1-5.42-2.52-67.12-2.52-67.12L140.66,285.07z"/>
			<path id="XMLID_4725_" class="st8" d="M149.3,411.56v-1.13c0.72,0.33,2.41,7.02,5.41,9.87c2.39,2.27,5.65,4.89,6.47,7.42
				c0.86,2.63-4.54,4.08-6.77,3.67c-2.59-0.48-7.09-2.38-8.21-4.14c-1.13-1.76-1.66-4.36-2.57-5.65c-0.92-1.29-3.03-2.73-3.53-4.23
				c-0.27-0.82,0.05-2.62,0.43-4.14c0.35-1.39,0.73-2.93,1.19-2.8c0,0.17,0,0.86,0,0.86c0.55,0.63,2.07,1.26,3.79,1.33
				C146.62,412.67,149.31,412.44,149.3,411.56z"/>
			<path id="XMLID_4682_" class="st8" d="M175.63,399.08c0.39,0.01,0.71,0.59,1.58,1.57c1.05,1.18,2.76,2.46,4.45,3.34
				c2.84,1.48,8.35,3.75,10.84,4.92c1.56,0.73,1.49,2.69-0.13,3.81c-1.61,1.12-5.5,1.92-10.17,0.83c-2.54-0.59-5.86-3.04-7.95-2.91
				c-2.1,0.13-6.02,0.1-7.57-1.01c-1.55-1.11-0.93-3.48-0.49-5.52c0.48-2.23,1.07-5.69,1.78-5.54v0.77
				c0.91,1.44,5.61,2.02,7.61,0.96L175.63,399.08z"/>
			<path id="XMLID_4681_" class="st14" d="M161.55,313.83c0,0,6.05-1.78,10.54-6.3c0,0-2.03,3.97-8.08,7.66l1.29,34.18
				L161.55,313.83z"/>
		</g>
		<g id="XMLID_4677_">
			<path id="XMLID_4679_" class="st20" d="M144.6,244c0,0-5.93,0.54-5.5,11.83l1.31,17.98l-0.12,26.98
				c5.57,6.31,30.25,5.85,38.7-0.51c0,0-0.87-31.93-1.44-44.22c-0.41-8.74-2.42-13.13-11-14.1l-10.56,0.46L144.6,244z"/>
			<polygon id="XMLID_4678_" class="st30" points="161.43,249.92 162.79,259.4 165.96,259.34 162.38,259.9 			"/>
		</g>
		<g id="XMLID_4674_">
			<path id="XMLID_4676_" class="st28" d="M125.81,282.76c3.07-24.7,10.14-36.97,18.75-38.42l-0.61,15.8c0,0-5.79,13.19-8.2,26.15
				c-1.13,6.08-2.44,16.65-2.1,21.85c0.06,0.92,0.47,1.78,1.1,2.42c1.7,1.73,2.21,3.23,3.35,5.19c0.89,1.53,1.81,2.07,1.58,2.44
				c-0.31,0.47-1.31,1.12-2.64,0.34c-0.67-0.39-1.47-1.19-2.46-2.22c0,0-0.25,3.81,1.24,6.88c2.02,4.15,1.68,6.35-3.9,5.12
				c-3.5-0.77-6.02-4.46-6.96-13.07c-0.27-2.48-0.3-6.49-0.17-9.65C125.13,297.35,125.2,287.7,125.81,282.76z"/>
			<path id="XMLID_4675_" class="st14" d="M145.05,243.93c-4.47-0.02-8.55,0.77-11.8,7.02c-3.11,5.99-5.51,18.69-6.71,22.84
				c0,0,6.53,3.86,12.54,3.77l4.23-14.68C143.31,262.87,146.17,256.02,145.05,243.93z"/>
			<path id="XMLID_2361_" class="st29" d="M145.05,243.93c-4.47-0.02-8.55,0.77-11.8,7.02c-3.11,5.99-5.51,18.69-6.71,22.84
				c0,0,6.53,3.86,12.54,3.77l4.23-14.68C143.31,262.87,146.17,256.02,145.05,243.93z"/>
		</g>
		<g id="XMLID_4646_">
			<path id="XMLID_4673_" class="st8" d="M154.28,218.51c0,6.48,5.05,11.74,11.27,11.74s11.27-5.26,11.27-11.74
				c0-6.48-5.05-11.74-11.27-11.74S154.28,212.02,154.28,218.51z"/>
			<g id="XMLID_4654_">
				<path id="XMLID_4672_" class="st8" d="M147.11,224.38c0,0,1.73,8.46,2.42,9.85c0.69,1.39,2.13,1.79,2.13,1.79l-0.12-5.95
					L147.11,224.38z"/>
				<path id="XMLID_4671_" class="st8" d="M149.28,212.26c0,0-1.24-0.31-2.56,1.75c-1.13,1.76-1.39,5.73,0.39,10.37l3.26,0.39
					L149.28,212.26z"/>
				<path id="XMLID_4670_" class="st28" d="M151.34,224.77c-0.65,0.41-1.58-0.9-2.39-1.78c-0.81-0.88-3.43-2.08-4.75,0.8
					c-1.34,2.93,1.16,6.81,3.23,7.49c3.57,1.17,4.1-1.22,4.1-1.22l0.27,13.4c4.74,7.32,15.46,7.06,11.6-0.35l-0.01-4.08
					c0,0,3.23,0.51,4.81,0.26c2.62-0.42,4.27-2.58,5.07-5.54c1.28-4.75,1.76-8.59,0.68-17.93c-1.19-10.24-12.62-10.35-18.8-6.3
					C148.99,213.58,151.34,224.77,151.34,224.77z"/>
				<path id="XMLID_4659_" class="st14" d="M151.75,240.46c0,0,1.67,3.6,4.64,5.81c2.73,2.03,5.61,2.38,5.61,2.38
					s-2.78,1.84-3.96,4.45c-1.18,2.61-9.51-4.57-9.44-9.65c0,0,1.31-5.11,3.1-5.44L151.75,240.46z"/>
				<path id="XMLID_4658_" class="st14" d="M161.99,248.66c0,0,2.57-1.28,1.42-5.55l-0.01-4.08l1.13,0.15
					c0.88,0.79,2.26,2.65,2.71,4.69c0.26,1.17,0.89,7.08-0.24,8.26C165.97,253.2,164.3,248.97,161.99,248.66z"/>
				<path id="XMLID_4657_" class="st8" d="M151.34,225.92c-0.33,0.01-1.58-2.15-2.39-2.92c-1.13-1.07,0.33-10.73,0.33-10.73
					s-1.08-2.4,1.09-4.89c1.54-1.77,4.12-1.97,8.52-2.69c1.72-0.28,3.55-0.47,5.22-0.94c1.79-0.51,3.55-1.69,5.22-2.54
					c0.55-0.28,1.17-0.57,1.77-0.41c0.57,0.15,0.97,0.7,1.12,1.28c0.15,0.58,0.09,1.18,0.03,1.77c1.02-1.13,3.01-0.96,4.05,0.14
					c1.04,1.11,1.19,2.86,0.63,4.27s-1.69,2.53-2.95,3.38c-5.53,3.74-12.06,2.7-18.26,1.96c-0.3-0.04-0.61-0.07-0.88,0.06
					c-0.97,0.44-1.18,3.45-1.35,4.32C152.92,220.92,152.44,225.9,151.34,225.92z"/>
				<path id="XMLID_4656_" class="st8" d="M149.28,212.77l-3.95-2.21c0.56-1.18,1.9-1.64,2.99-1.03
					C149.41,210.14,149.84,211.59,149.28,212.77z"/>
				<path id="XMLID_4655_" class="st31" d="M163.4,239.03c0,0-5.86-1.23-7.9-2.36c-1.37-0.76-2.5-2.07-2.83-2.92
					c0,0,0.38,1.81,1.61,3.44c1.5,1.99,9.12,3.46,9.12,3.46L163.4,239.03z"/>
			</g>
			<g id="XMLID_4647_">
				<path id="XMLID_4653_" class="st8" d="M161.28,222.9c0,0.7-0.53,1.27-1.17,1.27c-0.65,0-1.17-0.57-1.17-1.27
					c0-0.7,0.53-1.27,1.17-1.27C160.76,221.63,161.28,222.2,161.28,222.9z"/>
				<path id="XMLID_4652_" class="st8" d="M159.27,217.82l-2.51,1.44c-0.37-0.75-0.11-1.68,0.58-2.08
					C158.04,216.78,158.9,217.07,159.27,217.82z"/>
				<path id="XMLID_4651_" class="st31" d="M162.87,231.69l2.68,1.05c-0.26,0.8-1.08,1.21-1.82,0.92
					C162.99,233.37,162.61,232.49,162.87,231.69z"/>
				<path id="XMLID_4650_" class="st8" d="M173.01,219.22l-2.64-1.29c0.3-0.77,1.14-1.1,1.87-0.75
					C172.97,217.54,173.31,218.45,173.01,219.22z"/>
				<path id="XMLID_4649_" class="st8" d="M171.27,222.9c0,0.7-0.53,1.27-1.17,1.27c-0.65,0-1.17-0.57-1.17-1.27
					c0-0.7,0.53-1.27,1.17-1.27C170.74,221.63,171.27,222.2,171.27,222.9z"/>
				<polygon id="XMLID_4648_" class="st31" points="164.62,221.99 164.75,229.4 168.96,228.44 				"/>
			</g>
		</g>
		<g id="XMLID_4628_">
			<g id="XMLID_4638_">
				<path id="XMLID_4642_" class="st8" d="M159.47,219.84c-1.59,0-2.88,1.31-2.88,2.93c0,1.62,1.29,2.93,2.88,2.93H160
					c1.59,0,2.88-1.31,2.88-2.93c0-1.62-1.29-2.93-2.88-2.93H159.47z M156.01,222.77c0-1.94,1.55-3.53,3.46-3.53l0.53,0
					c1.91,0,3.46,1.58,3.46,3.53c0,1.94-1.55,3.53-3.46,3.53h-0.53C157.56,226.29,156.01,224.71,156.01,222.77z"/>
			</g>
			<g id="XMLID_4634_">
				<path id="XMLID_4635_" class="st8" d="M170.02,219.84c-1.59,0-2.88,1.31-2.88,2.93c0,1.62,1.29,2.93,2.88,2.93l0.53,0
					c1.59,0,2.88-1.31,2.88-2.93c0-1.62-1.29-2.93-2.88-2.93H170.02z M166.56,222.77c0-1.94,1.55-3.53,3.46-3.53h0.53
					c1.91,0,3.46,1.58,3.46,3.53c0,1.94-1.55,3.53-3.46,3.53h-0.53C168.11,226.29,166.56,224.71,166.56,222.77z"/>
			</g>
			<path id="XMLID_4633_" class="st8" d="M163.42,222.07c0.32-0.54,1.04-0.91,1.83-0.95c0.68-0.04,1.28,0.19,1.59,0.61l0.46-0.36
				c-0.44-0.59-1.2-0.89-2.09-0.85c-0.99,0.05-1.87,0.52-2.3,1.23L163.42,222.07z"/>
			<rect id="XMLID_4632_" x="150.36" y="222.04" class="st8" width="5.96" height="0.59"/>
		</g>
	</g>
</g>
</svg>
